<?xml version="1.0" encoding="utf-8"?>
<!-- Generator: Adobe Illustrator 22.1.0, SVG Export Plug-In . SVG Version: 6.00 Build 0)  -->
<svg version="1.1" id="Layer_1" xmlns="http://www.w3.org/2000/svg" xmlns:xlink="http://www.w3.org/1999/xlink" x="0px" y="0px"
	 viewBox="0 0 754.6 309.4" style="enable-background:new 0 0 754.6 309.4;" xml:space="preserve">
<style type="text/css">
	.st0{fill:#FFFFFF;}
	.st1{fill:#F8FBFF;}
</style>
<g id="Background">
</g>
<g id="CSDS_Logo_-_White">
	<g>
		<path id="C" class="st0" d="M46.8,103.6c-3.2,1.1-6.9,1.7-11.2,1.7c-10.1,0-18.1-3.4-24.1-10.2c-6-6.6-9-15.4-9-26.3
			c0-8.9,1.7-16.6,5-22.8c3-5.4,7-9.5,11.9-12.5S29.8,29,35.8,29c3.7,0,7.2,0.5,10.5,1.6c3.4,1,6,2.4,8.1,4.2l-6.7,10
			C44,42,40.1,40.7,36,40.7c-2.5,0-4.8,0.6-7.1,1.7c-2.3,1.1-4.1,2.7-5.4,4.6c-2.8,4.2-4.1,10.4-4.1,18.9c0,5.1,0.2,9.1,0.7,12.1
			s1.3,5.5,2.4,7.5c3,5.5,7.8,8.2,14.2,8.2c2.2,0,4.3-0.3,6.3-1.1c2-0.7,4.1-1.9,6.3-3.7l6.8,9.4C53.1,100.7,50,102.5,46.8,103.6"/>
		<path id="S" class="st0" d="M113.3,90.9c-1.4,3-3.5,5.7-6.1,7.9c-2.6,2.2-5.8,3.9-9.6,5c-3.7,1.2-7.9,1.8-12.5,1.8
			c-4.2,0-8.5-0.6-12.9-1.7c-4.3-1.2-8.4-2.8-12.2-4.9l5.5-11.5c3.5,1.8,6.7,3.3,9.8,4.3c3.1,1.1,6.6,1.6,10.4,1.6
			c8.6,0,12.9-3.4,12.9-10.1c0-4.6-3.2-7.8-9.6-9.5l-8.1-2.2c-3.7-1-6.7-2.2-9-3.7s-4.2-3.4-5.5-5.6c-2-3.3-3.1-7.1-3.1-11.2
			c0-3.4,0.6-6.5,1.9-9.3s3.1-5.2,5.4-7.2s5.1-3.6,8.3-4.7c3.2-1.1,6.8-1.6,10.7-1.6c4.5,0,8.9,0.6,13.2,1.9
			c4.3,1.3,8.1,3.1,11.3,5.4l-7,10.5c-3.4-2-6.4-3.5-9.1-4.3c-2.7-0.9-5.4-1.3-8.1-1.3c-3,0-5.5,0.8-7.4,2.4
			c-1.9,1.6-2.9,3.6-2.9,6.1c0,1.9,0.6,3.4,1.7,4.5s3.3,2.1,6.5,2.9l8.9,2.4c6.2,1.6,10.8,4.3,13.9,8.1s4.7,8.4,4.7,13.9
			C115.5,84.5,114.8,87.9,113.3,90.9"/>
		<path id="D" class="st0" d="M172.2,93c-2.2,3-4.9,5.5-8,7.3c-3.1,1.9-6.4,2.9-9.8,3.2c-1.4,0.1-3,0.2-4.7,0.3
			c-1.7,0.1-3.7,0.1-5.8,0.1h-17.8V30.5h14.7c2.1,0,4.4,0,6.9,0.1s4.4,0.2,5.9,0.3c3.2,0.3,6.1,1,8.7,2.2c2.6,1.2,5.1,2.9,7.3,5.1
			c3.4,3.4,5.9,7.5,7.5,12.2c1.7,4.8,2.5,10.5,2.5,17.1C179.6,77.8,177.1,86.3,172.2,93 M162.5,57.2c-0.5-3.5-1.5-6.5-3-8.9
			c-1.2-2-2.7-3.6-4.5-4.6s-4.2-1.5-7.2-1.5H141V92h8c4.9,0,8.5-1.9,10.8-5.6s3.5-9.6,3.5-17.5C163.2,64.6,163,60.7,162.5,57.2"/>
		<path id="S_1_" class="st0" d="M238.4,90.9c-1.4,3-3.5,5.7-6.1,7.9c-2.6,2.2-5.8,3.9-9.6,5c-3.7,1.2-7.9,1.8-12.5,1.8
			c-4.2,0-8.5-0.6-12.9-1.7c-4.3-1.2-8.4-2.8-12.2-4.9l5.5-11.5c3.5,1.8,6.7,3.3,9.8,4.3c3.1,1.1,6.6,1.6,10.4,1.6
			c8.6,0,12.9-3.4,12.9-10.1c0-4.6-3.2-7.8-9.6-9.5l-8.1-2.2c-3.7-1-6.7-2.2-9-3.7s-4.2-3.4-5.5-5.6c-2-3.3-3.1-7.1-3.1-11.2
			c0-3.4,0.6-6.5,1.9-9.3c1.3-2.8,3.1-5.2,5.4-7.2c2.3-2,5.1-3.6,8.3-4.7s6.8-1.6,10.7-1.6c4.5,0,8.9,0.6,13.2,1.9s8.1,3.1,11.3,5.4
			l-7,10.5c-3.4-2-6.4-3.5-9.1-4.3c-2.7-0.9-5.4-1.3-8.1-1.3c-3,0-5.5,0.8-7.4,2.4c-1.9,1.6-2.9,3.6-2.9,6.1c0,1.9,0.6,3.4,1.7,4.5
			c1.1,1.1,3.3,2.1,6.5,2.9l8.9,2.4c6.2,1.6,10.8,4.3,14,8.1c3.1,3.8,4.7,8.4,4.7,13.9C240.5,84.5,239.8,87.9,238.4,90.9"/>
		<path id="C_1_" class="st0" d="M17.8,212.5c-2.3,0-4.4-0.4-6.2-1.3c-1.8-0.9-3.4-2.1-4.9-3.8c-2.7-3.2-4-7.4-4-12.5
			c0-4.2,0.8-7.8,2.3-10.6c1.3-2.5,3.1-4.5,5.4-5.9s4.8-2.1,7.5-2.1c1.7,0,3.3,0.2,4.9,0.7c1.5,0.5,2.8,1.1,3.9,2l-2.7,3.8
			c-0.9-0.7-1.9-1.2-2.9-1.5s-2-0.5-3.1-0.5c-1.5,0-2.9,0.4-4,1.1c-1.2,0.7-2.2,1.8-2.9,3.1c-0.6,1.1-1.1,2.4-1.4,3.8
			c-0.3,1.5-0.5,3.3-0.5,5.4c0,2.2,0.1,3.9,0.3,5.3c0.2,1.3,0.6,2.5,1,3.5c0.8,1.7,1.8,3,3.2,3.8c1.3,0.8,2.9,1.2,4.6,1.2
			c1.2,0,2.4-0.2,3.3-0.5c1-0.4,1.9-0.9,2.9-1.7l2.7,3.7C24.7,211.5,21.5,212.5,17.8,212.5"/>
		<path id="l" class="st0" d="M37.6,212.5c-1.4,0-2.5-0.3-3.3-0.8c-0.8-0.6-1.3-1.2-1.7-2s-0.6-1.6-0.6-2.4c0-0.8-0.1-1.5-0.1-2.1
			v-21.8c0-0.9,0-1.7,0-2.3c0-0.7,0-1.3-0.1-1.9c0-0.6-0.1-1.2-0.2-1.7s-0.2-1.1-0.3-1.6l5.6-1.3c0.2,0.8,0.3,1.7,0.4,2.8
			c0.1,1.1,0.1,2.5,0.1,4.2v21.8c0,0.9,0,1.6,0,2.1s0.1,1,0.1,1.3c0.1,0.3,0.1,0.6,0.2,0.8c0.1,0.2,0.2,0.3,0.3,0.5
			c0.2,0.2,0.4,0.4,0.8,0.5c0.4,0.1,0.7,0.1,1.1-0.1l0.9,3.4C39.9,212.3,38.8,212.5,37.6,212.5"/>
		<path id="i" class="st0" d="M51.2,181.4c-0.7,0.7-1.6,1.1-2.6,1.1s-1.9-0.4-2.5-1.1c-0.7-0.7-1-1.6-1-2.6s0.4-1.9,1.1-2.7
			c0.7-0.7,1.6-1.1,2.6-1.1s1.8,0.4,2.5,1.1c0.7,0.7,1.1,1.6,1.1,2.7C52.2,179.8,51.9,180.7,51.2,181.4 M45.8,186.7l5.6-1V212h-5.6
			V186.7z"/>
		<path id="n" class="st0" d="M73.5,195c0-1.8-0.2-2.9-0.6-3.5s-1.2-0.9-2.3-0.9c-0.8,0-1.7,0.3-2.8,0.8c-1,0.5-2,1.2-2.8,2.1v18.6
			h-5.6v-18.9c0-1.4-0.1-2.5-0.2-3.4c-0.1-0.9-0.4-1.8-0.8-2.7l5.1-1.4c0.3,0.6,0.5,1.2,0.7,1.7c0.2,0.6,0.2,1.2,0.2,1.9
			c1.4-1.2,2.7-2.1,3.9-2.7c1.2-0.6,2.5-0.9,3.9-0.9c2,0,3.7,0.6,4.9,1.8c1.2,1.2,1.8,3,1.8,5.3V212h-5.6v-17H73.5z"/>
		<path id="i_1_" class="st0" d="M92.6,181.4c-0.7,0.7-1.6,1.1-2.6,1.1s-1.9-0.4-2.5-1.1c-0.7-0.7-1-1.6-1-2.6s0.4-1.9,1.1-2.7
			c0.7-0.7,1.6-1.1,2.6-1.1s1.8,0.4,2.5,1.1c0.7,0.7,1.1,1.6,1.1,2.7C93.7,179.8,93.3,180.7,92.6,181.4 M87.2,186.7l5.6-1V212h-5.6
			V186.7z"/>
		<path id="c" class="st0" d="M114.8,211.8c-1.3,0.5-2.8,0.8-4.5,0.8c-3.5,0-6.3-1.1-8.1-3.4c-1.9-2.3-2.8-5.5-2.8-9.7
			c0-2.3,0.3-4.4,1-6.1c0.6-1.7,1.5-3.2,2.5-4.3s2.3-2,3.6-2.6c1.4-0.6,2.8-0.8,4.2-0.8c1.4,0,2.7,0.2,3.8,0.6
			c1.1,0.4,2.2,1.1,3.3,2.2l-2.8,3.7c-1.5-1.3-2.9-2-4.3-2c-1.9,0-3.2,0.9-4.1,2.6c-0.4,0.8-0.6,1.8-0.8,2.9
			c-0.2,1.2-0.3,2.6-0.3,4.2c0,3.4,0.6,5.7,1.7,7c0.9,1,2,1.5,3.4,1.5c1.8,0,3.5-0.8,5.2-2.5l2.7,3.4
			C117.3,210.4,116.1,211.2,114.8,211.8"/>
		<path id="a" class="st0" d="M138.5,211.7c-0.6-0.6-1.1-1.3-1.4-2.1c-1.1,1.2-2.1,2-3.3,2.5c-1.1,0.5-2.4,0.7-3.8,0.7
			c-3,0-5.1-0.7-6.5-2.2s-2.1-3.3-2.1-5.5c0-3,1.1-5.2,3.2-6.7s5.3-2.2,9.5-2.2h1.7v-1.4c0-1.5-0.2-2.7-0.6-3.4
			c-0.4-0.7-1.4-1.1-2.9-1.1c-0.9,0-1.8,0.2-2.7,0.5s-1.7,0.6-2.5,1c-0.7,0.4-1.3,0.7-1.8,1l-0.7,0.5l-2.5-4
			c1.9-1.2,3.8-2.1,5.5-2.7c1.7-0.6,3.5-0.8,5.5-0.8c4,0,6.6,1.4,7.8,4.3c0.2,0.4,0.3,0.9,0.3,1.5c0.1,0.5,0.1,1.3,0.1,2.4v2.4
			l-0.1,7.4c0,0.9,0,1.6,0.1,2.2c0,0.6,0.1,1.1,0.3,1.5s0.4,0.8,0.7,1.2c0.3,0.3,0.7,0.7,1.2,1l-2.9,3.5
			C139.9,212.7,139.2,212.3,138.5,211.7 M135.5,199.9c-0.2,0-0.5-0.1-0.7-0.1c-1.4,0-2.5,0.1-3.5,0.3c-0.9,0.2-1.7,0.5-2.2,0.9
			c-0.6,0.4-1,0.9-1.2,1.5s-0.4,1.3-0.4,2.1c0,1.2,0.3,2.2,0.9,2.9c0.6,0.7,1.5,1.1,2.6,1.1c0.9,0,1.7-0.2,2.5-0.7s1.5-1.1,2.1-2
			l0.1-6.1h-0.2V199.9z"/>
		<path id="l_1_" class="st0" d="M155,212.5c-1.4,0-2.5-0.3-3.3-0.8c-0.8-0.6-1.3-1.2-1.7-2s-0.6-1.6-0.6-2.4c0-0.8-0.1-1.5-0.1-2.1
			v-21.8c0-0.9,0-1.7,0-2.3c0-0.7,0-1.3-0.1-1.9c0-0.6-0.1-1.2-0.2-1.7c-0.1-0.5-0.2-1.1-0.3-1.6l5.6-1.3c0.2,0.8,0.3,1.7,0.4,2.8
			c0.1,1.1,0.1,2.5,0.1,4.2v21.8c0,0.9,0,1.6,0,2.1s0.1,1,0.1,1.3c0.1,0.3,0.1,0.6,0.2,0.8c0.1,0.2,0.2,0.3,0.3,0.5
			c0.2,0.2,0.4,0.4,0.8,0.5c0.4,0.1,0.7,0.1,1.1-0.1l0.9,3.4C157.4,212.3,156.3,212.5,155,212.5"/>
		<path id="S_2_" class="st0" d="M195.6,205.6c-0.6,1.3-1.5,2.5-2.6,3.6c-1.1,1-2.6,1.9-4.3,2.5s-3.7,0.9-5.9,0.9c-2,0-4-0.3-6-0.8
			s-3.8-1.3-5.5-2.4l2.2-4.5c1.6,0.9,3.2,1.6,4.6,2.1c1.4,0.5,3.1,0.8,4.9,0.8c2.2,0,3.9-0.5,5.1-1.5c1.2-1,1.8-2.3,1.8-4.1
			c0-1.3-0.4-2.3-1.2-3.2c-0.8-0.8-2.2-1.5-4-2l-3.8-1.1c-1.6-0.5-3-1-4.1-1.7s-2-1.5-2.7-2.5c-1-1.5-1.5-3.2-1.5-5.1
			c0-1.6,0.3-3,0.9-4.2c0.6-1.3,1.4-2.3,2.4-3.3c1-0.9,2.3-1.6,3.8-2.1c1.4-0.5,3.1-0.8,4.9-0.8c2,0,4,0.3,5.9,0.9
			c1.9,0.6,3.6,1.4,5.2,2.5l-2.6,4.1c-1.6-0.9-3.1-1.6-4.3-2c-1.3-0.4-2.6-0.6-4-0.6c-1.7,0-3.1,0.4-4.2,1.3c-1,0.9-1.6,2-1.6,3.5
			c0,1.1,0.3,1.9,1,2.6c0.7,0.6,1.9,1.2,3.6,1.7l4.2,1.2c2.5,0.7,4.6,1.9,6.2,3.6c1.6,1.6,2.4,3.8,2.4,6.4
			C196.5,202.8,196.2,204.2,195.6,205.6"/>
		<path id="k" class="st0" d="M202.8,182.1c0-1.2,0-2.3-0.1-3.3c-0.1-0.9-0.2-1.9-0.4-2.9l5.6-1.4c0.2,0.8,0.3,1.8,0.4,3
			c0.1,1.2,0.1,2.5,0.1,3.8v30.6h-5.6V182.1z M208.8,197.5l7.6-11.1h6.7l-8.8,10.8l10.8,14.8h-6.7L208.8,197.5z"/>
		<path id="i_2_" class="st0" d="M233.6,181.4c-0.7,0.7-1.6,1.1-2.6,1.1s-1.9-0.4-2.5-1.1c-0.7-0.7-1-1.6-1-2.6s0.4-1.9,1.1-2.7
			c0.7-0.7,1.6-1.1,2.6-1.1s1.8,0.4,2.5,1.1c0.7,0.7,1.1,1.6,1.1,2.7C234.7,179.8,234.4,180.7,233.6,181.4 M228.2,186.7l5.6-1V212
			h-5.6V186.7z"/>
		<path id="l_2_" class="st0" d="M247.3,212.5c-1.4,0-2.5-0.3-3.3-0.8c-0.8-0.6-1.3-1.2-1.7-2s-0.6-1.6-0.6-2.4
			c0-0.8-0.1-1.5-0.1-2.1v-21.8c0-0.9,0-1.7,0-2.3c0-0.7,0-1.3-0.1-1.9c0-0.6-0.1-1.2-0.2-1.7c-0.1-0.5-0.2-1.1-0.3-1.6l5.6-1.3
			c0.2,0.8,0.3,1.7,0.4,2.8c0.1,1.1,0.1,2.5,0.1,4.2v21.8c0,0.9,0,1.6,0,2.1s0.1,1,0.1,1.3c0.1,0.3,0.1,0.6,0.2,0.8
			c0.1,0.2,0.2,0.3,0.3,0.5c0.2,0.2,0.4,0.4,0.8,0.5c0.4,0.1,0.7,0.1,1.1-0.1l0.9,3.4C249.7,212.3,248.6,212.5,247.3,212.5"/>
		<path id="l_3_" class="st0" d="M260.6,212.5c-1.4,0-2.5-0.3-3.3-0.8c-0.8-0.6-1.3-1.2-1.7-2c-0.4-0.8-0.6-1.6-0.6-2.4
			c-0.1-0.8-0.1-1.5-0.1-2.1v-21.8c0-0.9,0-1.7,0-2.3c0-0.7,0-1.3-0.1-1.9c0-0.6-0.1-1.2-0.2-1.7c-0.1-0.5-0.2-1.1-0.3-1.6l5.6-1.3
			c0.2,0.8,0.3,1.7,0.4,2.8s0.1,2.5,0.1,4.2v21.8c0,0.9,0,1.6,0,2.1s0.1,1,0.1,1.3c0.1,0.3,0.1,0.6,0.2,0.8s0.2,0.3,0.3,0.5
			c0.2,0.2,0.4,0.4,0.8,0.5s0.7,0.1,1.1-0.1l0.9,3.4C263,212.3,261.8,212.5,260.6,212.5"/>
		<path id="s" class="st0" d="M285.8,207.5c-0.5,1.1-1.2,2-2.1,2.8s-2,1.3-3.3,1.8c-1.3,0.4-2.7,0.6-4.2,0.6c-1.6,0-3.3-0.2-4.9-0.7
			s-3.3-1.2-4.9-2.1l2-4c1.1,0.7,2.5,1.3,3.9,1.9c1.5,0.6,2.9,0.8,4.4,0.8c1.2,0,2.2-0.3,3-1s1.2-1.5,1.2-2.6c0-1-0.3-1.7-1-2.3
			s-1.7-1-3.2-1.3l-3.1-0.7c-1.9-0.4-3.4-1.2-4.5-2.5c-1.1-1.2-1.6-2.8-1.6-4.6c0-1.2,0.2-2.3,0.7-3.3s1.1-1.8,2-2.6
			c0.9-0.7,1.9-1.3,3-1.7c1.2-0.4,2.5-0.6,3.9-0.6c1.8,0,3.3,0.2,4.7,0.7c1.4,0.5,2.6,1,3.7,1.6l-1.8,3.9c-1.2-0.6-2.3-1.1-3.2-1.4
			c-1-0.3-2-0.5-3-0.5c-1.2,0-2.1,0.3-2.8,0.9c-0.7,0.6-1.1,1.4-1.1,2.3c0,0.8,0.3,1.4,0.8,1.8c0.5,0.4,1.4,0.8,2.7,1.2l3.2,0.8
			c1.3,0.3,2.3,0.8,3.2,1.3c0.8,0.5,1.5,1.1,2,1.7c0.5,0.6,0.8,1.3,1,2s0.3,1.4,0.3,2.2C286.5,205.2,286.3,206.4,285.8,207.5"/>
		<path id="D_1_" class="st0" d="M327.5,201.7c-0.6,2.1-1.6,3.9-2.7,5.4c-0.7,0.9-1.5,1.7-2.3,2.4c-0.8,0.6-1.7,1.1-2.6,1.5
			c-1,0.4-2.1,0.7-3.3,0.8c-1.2,0.2-2.7,0.2-4.3,0.2h-8.7v-35h7.3c1.6,0,3.1,0.1,4.5,0.3c1.3,0.2,2.6,0.4,3.7,0.8
			c1.1,0.4,2.1,0.9,3.1,1.5c0.9,0.6,1.8,1.4,2.6,2.4c2.5,2.9,3.8,7.1,3.8,12.6C328.5,197.2,328.1,199.6,327.5,201.7 M321.4,189.1
			c-0.3-1.8-0.9-3.3-1.8-4.5c-0.8-1.1-1.7-1.9-2.7-2.3c-1-0.5-2.3-0.7-3.9-0.7h-3.7v25.6h3.9c3.1,0,5.4-1,6.7-3c1.3-2,2-5,2-9
			C321.9,192.9,321.7,190.8,321.4,189.1"/>
		<path id="e" class="st0" d="M339.3,201c0,0.9,0.1,1.7,0.3,2.6c0.2,0.9,0.5,1.7,1,2.3c0.5,0.7,1.1,1.2,2,1.7
			c0.8,0.4,1.9,0.6,3.1,0.6c2.3,0,4.4-0.8,6.4-2.5l2.2,3.4c-2.7,2.3-5.8,3.4-9.2,3.4c-1.8,0-3.5-0.3-4.9-0.9
			c-1.5-0.6-2.7-1.5-3.7-2.7s-1.8-2.6-2.4-4.2c-0.6-1.7-0.8-3.5-0.8-5.6c0-2.3,0.3-4.2,0.8-5.8s1.3-3,2.4-4.3c1-1.2,2.2-2.1,3.5-2.6
			c1.3-0.6,2.7-0.8,4.4-0.8c1.3,0,2.5,0.2,3.7,0.6c1.2,0.4,2.3,1.1,3.4,2.1s2,2.4,2.5,4.1c0.6,1.7,0.8,4.1,0.8,7v1.2h-15.4
			L339.3,201L339.3,201z M347.6,191.7c-0.8-1.1-2-1.7-3.4-1.7c-1.6,0-2.9,0.6-3.7,1.7c-0.8,1.1-1.2,2.8-1.2,4.9h9.6
			C348.8,194.5,348.4,192.8,347.6,191.7"/>
		<path id="v" class="st0" d="M366.1,212l-9.2-25.5l5.8-0.8l4.5,13.9c0.2,0.7,0.4,1.4,0.6,2.1c0.2,0.7,0.4,1.3,0.5,1.9
			c0.2,0.5,0.3,1,0.3,1.3l0.2,0.5c0-0.1,0.1-0.4,0.2-0.9s0.3-1.3,0.5-2.2s0.5-1.9,0.8-2.8l4.3-13h5.8L371,212H366.1z"/>
		<path id="e_1_" class="st0" d="M389,201c0,0.9,0.1,1.7,0.3,2.6c0.2,0.9,0.5,1.7,1,2.3c0.5,0.7,1.1,1.2,2,1.7
			c0.8,0.4,1.9,0.6,3.1,0.6c2.3,0,4.4-0.8,6.4-2.5l2.2,3.4c-2.7,2.3-5.7,3.4-9.2,3.4c-1.8,0-3.5-0.3-4.9-0.9
			c-1.5-0.6-2.7-1.5-3.7-2.7s-1.8-2.6-2.4-4.2c-0.6-1.7-0.8-3.5-0.8-5.6c0-2.3,0.3-4.2,0.8-5.8s1.3-3,2.4-4.3c1-1.2,2.2-2.1,3.5-2.6
			c1.3-0.6,2.7-0.8,4.4-0.8c1.3,0,2.5,0.2,3.7,0.6c1.2,0.4,2.3,1.1,3.4,2.1s2,2.4,2.5,4.1c0.6,1.7,0.8,4.1,0.8,7v1.2H389V201z
			 M397.3,191.7c-0.8-1.1-2-1.7-3.4-1.7c-1.6,0-2.9,0.6-3.7,1.7c-0.8,1.1-1.2,2.8-1.2,4.9h9.6C398.6,194.5,398.1,192.8,397.3,191.7"
			/>
		<path id="l_4_" class="st0" d="M416,212.5c-1.4,0-2.5-0.3-3.3-0.8c-0.8-0.6-1.3-1.2-1.7-2c-0.4-0.8-0.6-1.6-0.6-2.4
			c-0.1-0.8-0.1-1.5-0.1-2.1v-21.8c0-0.9,0-1.7,0-2.3c0-0.7,0-1.3-0.1-1.9c0-0.6-0.1-1.2-0.2-1.7s-0.2-1.1-0.3-1.6l5.6-1.3
			c0.2,0.8,0.3,1.7,0.4,2.8s0.1,2.5,0.1,4.2v21.8c0,0.9,0,1.6,0,2.1s0.1,1,0.1,1.3c0.1,0.3,0.1,0.6,0.2,0.8s0.2,0.3,0.3,0.5
			c0.2,0.2,0.4,0.4,0.8,0.5s0.7,0.1,1.1-0.1l0.9,3.4C418.4,212.3,417.3,212.5,416,212.5"/>
		<path id="o" class="st0" d="M444.3,204.8c-0.5,1.7-1.3,3.1-2.3,4.2c-1,1.2-2.2,2-3.6,2.7c-1.4,0.6-3,0.9-4.7,0.9s-3.3-0.3-4.7-0.9
			c-1.4-0.6-2.6-1.5-3.6-2.7s-1.7-2.6-2.3-4.2c-0.5-1.7-0.8-3.5-0.8-5.6s0.3-3.9,0.8-5.6c0.5-1.7,1.3-3.1,2.3-4.2
			c1-1.2,2.2-2.1,3.5-2.7c1.4-0.6,2.9-1,4.6-1c1.8,0,3.4,0.3,4.9,1c1.4,0.6,2.6,1.6,3.6,2.8s1.7,2.6,2.2,4.3s0.8,3.5,0.8,5.5
			C445,201.3,444.8,203.1,444.3,204.8 M438.6,194.9c-0.3-1.2-0.6-2.2-1.1-2.9s-1-1.2-1.7-1.5c-0.6-0.3-1.4-0.5-2.2-0.5
			c-1.8,0-3.2,0.7-3.9,2.1c-0.8,1.4-1.2,3.6-1.2,6.8c0,1.8,0.1,3.4,0.4,4.6c0.2,1.2,0.6,2.2,1,2.9s1,1.3,1.6,1.6
			c0.7,0.3,1.4,0.5,2.3,0.5c1.7,0,3-0.7,3.8-2.1c0.9-1.4,1.3-3.7,1.3-7C439,197.6,438.8,196.1,438.6,194.9"/>
		<path id="p" class="st0" d="M472.4,204.3c-0.5,1.7-1.1,3.2-2,4.4s-1.9,2.1-3.2,2.8c-1.3,0.6-2.7,1-4.4,1c-2.3,0-4.3-0.7-6.1-2.1
			l0.1,0.8c0,0.5,0,1.1,0,1.8v8.6l-5.3,1.4v-29.9c0-0.8,0-1.5,0-2.1s0-1.1-0.1-1.6c0-0.5-0.1-0.9-0.2-1.4c-0.1-0.4-0.2-0.9-0.3-1.3
			l5.1-0.9c0.1,0.4,0.2,0.9,0.3,1.3c0.1,0.4,0.1,1,0.1,1.8c0.8-1,1.8-1.7,3-2.3c1.2-0.5,2.5-0.8,3.8-0.8s2.5,0.3,3.7,0.8
			s2.2,1.3,3.1,2.3s1.6,2.4,2.1,4s0.8,3.5,0.8,5.8C473.1,200.7,472.8,202.6,472.4,204.3 M466,192.6c-0.7-1.5-1.9-2.3-3.8-2.3
			c-2.1,0-3.9,0.9-5.5,2.7v12.9c0.7,0.7,1.4,1.2,2.3,1.7c0.8,0.4,1.7,0.6,2.5,0.6c1.9,0,3.3-0.7,4.2-2.2c0.9-1.4,1.3-3.7,1.3-6.8
			C467,196.3,466.6,194.1,466,192.6"/>
		<path id="m" class="st0" d="M506.4,194.1c0-1.5-0.2-2.5-0.6-3.1c-0.4-0.5-1.1-0.8-2.1-0.8c-0.9,0-1.9,0.3-2.8,0.8
			c-0.9,0.6-1.8,1.3-2.7,2.1v18.7H493v-17.6c0-1.5-0.2-2.6-0.6-3.1c-0.4-0.6-1.1-0.8-2.2-0.8c-0.8,0-1.6,0.2-2.5,0.6
			c-0.9,0.4-1.8,1-2.8,1.9v19h-5.3v-18.4c0-1.6-0.1-2.9-0.2-4c-0.2-1-0.4-1.9-0.7-2.5l5.1-1.4c0.5,0.8,0.8,1.9,0.9,3.3
			c1-1,2.1-1.8,3.3-2.4c1.2-0.6,2.3-0.8,3.5-0.8s2.2,0.3,3.2,0.8s2,1.5,2.9,3c1.3-1.3,2.5-2.2,3.7-2.8s2.5-0.9,4-0.9
			c2.1,0,3.8,0.6,4.9,1.7c1.2,1.2,1.7,3.1,1.7,5.8V212h-5.5V194.1z"/>
		<path id="e_2_" class="st0" d="M524.6,201c0,0.9,0.1,1.7,0.3,2.6c0.2,0.9,0.5,1.7,1,2.3c0.5,0.7,1.1,1.2,2,1.7
			c0.8,0.4,1.9,0.6,3.1,0.6c2.3,0,4.4-0.8,6.4-2.5l2.2,3.4c-2.7,2.3-5.7,3.4-9.2,3.4c-1.8,0-3.5-0.3-4.9-0.9
			c-1.5-0.6-2.7-1.5-3.7-2.7s-1.8-2.6-2.4-4.2c-0.6-1.7-0.8-3.5-0.8-5.6c0-2.3,0.3-4.2,0.8-5.8s1.3-3,2.4-4.3c1-1.2,2.2-2.1,3.5-2.6
			c1.3-0.6,2.7-0.8,4.4-0.8c1.3,0,2.5,0.2,3.7,0.6c1.2,0.4,2.3,1.1,3.4,2.1c1.1,1,2,2.4,2.5,4.1c0.6,1.7,0.8,4.1,0.8,7v1.2h-15.4
			L524.6,201L524.6,201z M532.9,191.7c-0.8-1.1-2-1.7-3.4-1.7c-1.6,0-2.9,0.6-3.7,1.7c-0.8,1.1-1.2,2.8-1.2,4.9h9.6
			C534.2,194.5,533.7,192.8,532.9,191.7"/>
		<path id="n_1_" class="st0" d="M560.1,195c0-1.8-0.2-2.9-0.6-3.5c-0.4-0.6-1.2-0.9-2.3-0.9c-0.8,0-1.7,0.3-2.8,0.8
			c-1,0.5-2,1.2-2.8,2.1v18.6H546v-18.9c0-1.4-0.1-2.5-0.2-3.4c-0.1-0.9-0.4-1.8-0.8-2.7l5.1-1.4c0.3,0.6,0.5,1.2,0.7,1.7
			c0.2,0.6,0.2,1.2,0.2,1.9c1.4-1.2,2.7-2.1,3.9-2.7c1.2-0.6,2.5-0.9,3.9-0.9c2,0,3.7,0.6,4.9,1.8s1.8,3,1.8,5.3V212h-5.6v-17H560.1
			z"/>
		<path id="t" class="st0" d="M580.4,212.6c-1.3,0-2.3-0.2-3.2-0.5s-1.5-0.8-2.1-1.4c-0.5-0.6-0.9-1.3-1.1-2.1
			c-0.2-0.8-0.4-1.6-0.4-2.6v-15.8h-2.8v-3.9h2.8c0-1.1,0-2.2,0-3.3s0.1-2.1,0.2-3.1l5.8-1.4c-0.1,1.1-0.2,2.3-0.3,3.7
			s-0.1,2.8-0.1,4.1h6.1l-1.5,3.9h-4.7v14.3c0,1.6,0.2,2.6,0.7,3.2c0.4,0.6,1.3,0.9,2.5,0.9c0.7,0,1.5-0.2,2.4-0.5l0.7,3.4
			C583.9,212.2,582.2,212.6,580.4,212.6"/>
		<path id="S_3_" class="st0" d="M622.9,205.6c-0.6,1.3-1.5,2.5-2.6,3.6c-1.1,1-2.6,1.9-4.3,2.5s-3.7,0.9-5.9,0.9c-2,0-4-0.3-6-0.8
			s-3.8-1.3-5.5-2.4l2.2-4.5c1.6,0.9,3.2,1.6,4.6,2.1c1.4,0.5,3.1,0.8,4.9,0.8c2.2,0,3.9-0.5,5.1-1.5c1.2-1,1.8-2.3,1.8-4.1
			c0-1.3-0.4-2.3-1.2-3.2c-0.8-0.8-2.2-1.5-4-2l-3.8-1.1c-1.6-0.5-3-1-4.1-1.7s-2-1.5-2.7-2.5c-1-1.5-1.5-3.2-1.5-5.1
			c0-1.6,0.3-3,0.9-4.2c0.6-1.3,1.4-2.3,2.4-3.3c1-0.9,2.3-1.6,3.7-2.1c1.5-0.5,3.1-0.8,4.9-0.8c2,0,4,0.3,5.9,0.9
			c1.9,0.6,3.6,1.4,5.2,2.5l-2.6,4.1c-1.6-0.9-3.1-1.6-4.3-2c-1.3-0.4-2.6-0.6-4-0.6c-1.7,0-3.1,0.4-4.2,1.3c-1.1,0.9-1.6,2-1.6,3.5
			c0,1.1,0.3,1.9,1,2.6c0.7,0.6,1.9,1.2,3.6,1.7l4.2,1.2c2.5,0.7,4.6,1.9,6.2,3.6c1.6,1.6,2.4,3.8,2.4,6.4
			C623.8,202.8,623.5,204.2,622.9,205.6"/>
		<path id="e_3_" class="st0" d="M634.7,201c0,0.9,0.1,1.7,0.3,2.6c0.2,0.9,0.5,1.7,1,2.3c0.5,0.7,1.1,1.2,2,1.7
			c0.8,0.4,1.9,0.6,3.1,0.6c2.3,0,4.4-0.8,6.4-2.5l2.2,3.4c-2.7,2.3-5.8,3.4-9.2,3.4c-1.8,0-3.5-0.3-4.9-0.9
			c-1.5-0.6-2.7-1.5-3.7-2.7s-1.8-2.6-2.4-4.2c-0.6-1.7-0.8-3.5-0.8-5.6c0-2.3,0.3-4.2,0.8-5.8s1.3-3,2.4-4.3
			c1.1-1.2,2.2-2.1,3.5-2.6c1.3-0.6,2.7-0.8,4.4-0.8c1.3,0,2.5,0.2,3.7,0.6c1.2,0.4,2.3,1.1,3.4,2.1c1.1,1,2,2.4,2.5,4.1
			c0.6,1.7,0.8,4.1,0.8,7v1.2h-15.4L634.7,201L634.7,201z M643,191.7c-0.8-1.1-2-1.7-3.4-1.7c-1.6,0-2.9,0.6-3.7,1.7
			c-0.8,1.1-1.2,2.8-1.2,4.9h9.6C644.3,194.5,643.8,192.8,643,191.7"/>
		<path id="r" class="st0" d="M667.3,191c-0.2-0.1-0.5-0.1-0.8-0.1c-1.2,0-2.2,0.4-3.1,1.1c-0.9,0.7-1.5,1.6-1.7,2.7V212h-5.6v-18.1
			c0-1.6-0.1-3-0.3-4.1s-0.4-2-0.7-2.8l5.1-1.3c0.6,1.2,1,2.5,1,4.1c1-1.4,2-2.5,3.1-3.1c1-0.7,2.2-1,3.4-1c0.7,0,1.4,0.1,2,0.4
			l-1.7,5.3C667.8,191.2,667.6,191.1,667.3,191"/>
		<path id="v_1_" class="st0" d="M679.8,212l-9.2-25.5l5.8-0.8l4.5,13.9c0.2,0.7,0.4,1.4,0.6,2.1c0.2,0.7,0.4,1.3,0.5,1.9
			c0.2,0.5,0.3,1,0.3,1.3l0.2,0.5c0-0.1,0.1-0.4,0.2-0.9c0.1-0.5,0.3-1.3,0.5-2.2s0.5-1.9,0.8-2.8l4.3-13h5.8l-9.3,25.7h-5V212z"/>
		<path id="i_3_" class="st0" d="M703.2,181.4c-0.7,0.7-1.6,1.1-2.6,1.1s-1.9-0.4-2.5-1.1c-0.7-0.7-1-1.6-1-2.6s0.4-1.9,1.1-2.7
			c0.7-0.7,1.6-1.1,2.6-1.1s1.8,0.4,2.5,1.1c0.7,0.7,1.1,1.6,1.1,2.7C704.3,179.8,704,180.7,703.2,181.4 M697.8,186.7l5.6-1V212
			h-5.6V186.7z"/>
		<path id="c_1_" class="st0" d="M725.5,211.8c-1.3,0.5-2.8,0.8-4.5,0.8c-3.5,0-6.3-1.1-8.1-3.4c-1.9-2.3-2.8-5.5-2.8-9.7
			c0-2.3,0.3-4.4,1-6.1c0.6-1.7,1.5-3.2,2.5-4.3s2.3-2,3.6-2.6c1.4-0.6,2.8-0.8,4.2-0.8s2.7,0.2,3.7,0.6c1.1,0.4,2.2,1.1,3.3,2.2
			l-2.8,3.7c-1.5-1.3-2.9-2-4.3-2c-1.9,0-3.2,0.9-4.1,2.6c-0.4,0.8-0.6,1.8-0.8,2.9c-0.2,1.2-0.3,2.6-0.3,4.2c0,3.4,0.6,5.7,1.7,7
			c0.9,1,2,1.5,3.4,1.5c1.8,0,3.5-0.8,5.2-2.5l2.7,3.4C728,210.4,726.7,211.2,725.5,211.8"/>
		<path id="e_4_" class="st0" d="M738.3,201c0,0.9,0.1,1.7,0.3,2.6c0.2,0.9,0.5,1.7,1,2.3c0.5,0.7,1.1,1.2,2,1.7
			c0.8,0.4,1.9,0.6,3.1,0.6c2.3,0,4.4-0.8,6.4-2.5l2.2,3.4c-2.7,2.3-5.8,3.4-9.2,3.4c-1.8,0-3.5-0.3-4.9-0.9
			c-1.5-0.6-2.7-1.5-3.7-2.7s-1.8-2.6-2.4-4.2c-0.6-1.7-0.8-3.5-0.8-5.6c0-2.3,0.3-4.2,0.8-5.8s1.3-3,2.4-4.3
			c1.1-1.2,2.2-2.1,3.5-2.6c1.3-0.6,2.7-0.8,4.4-0.8c1.3,0,2.5,0.2,3.7,0.6c1.2,0.4,2.3,1.1,3.4,2.1c1.1,1,2,2.4,2.5,4.1
			c0.6,1.7,0.8,4.1,0.8,7v1.2h-15.4L738.3,201L738.3,201z M746.6,191.7c-0.8-1.1-2-1.7-3.4-1.7c-1.6,0-2.9,0.6-3.7,1.7
			c-0.8,1.1-1.2,2.8-1.2,4.9h9.6C747.9,194.5,747.4,192.8,746.6,191.7"/>
		<path id="Arches" class="st0" d="M535.4,5.5h0.3c86.4,0,160.4,54.2,189.4,130.3h2.2C698.2,58.5,623.3,3.4,535.7,3.4h-0.3
			C447.8,3.5,373.1,58.6,344,135.8h14.8c3.3-4.4,7-8.6,11-12.6c22.5-22.5,52.5-34.9,84.5-34.9c39,0,73.6,18.7,95.4,47.5h7.7
			C534.7,103.3,496.9,82,454.2,82c-23.1,0-45.2,6.2-64.5,17.8c22-15.9,49-25.3,78.2-25.3c47.1,0,88.6,24.5,112.3,61.3h6.5
			c-24.4-40-68.6-66.9-119-66.9c-30.3,0-58.4,9.8-81.3,26.4c26.5-22.4,59.7-34.6,95-34.6c55.1,0,103.2,30.3,128.4,75.1h5.5
			c-25.7-47.5-76.1-80-134.2-80c-35.3,0-68.8,12-95.8,34c28.7-26.6,67.1-42.9,109.3-42.9h0.2c63,0,117.7,36.3,144.1,88.9h4.6
			C617,80.8,560.4,42.7,495,42.7h-0.2c-45.1,0.1-85.9,18.2-115.7,47.4c1.8-2,3.7-4,5.7-6c33-32.9,76.9-51.1,123.6-51.1h0.2
			c70.8,0,132,42.2,159.4,102.7h3.8C644.1,73.3,581.4,29.6,508.6,29.6h-0.2c-47.6,0.1-92.4,18.6-126,52.1c-2.2,2.2-4.4,4.5-6.4,6.8
			c34.6-42.2,87.2-69.2,146-69.2h0.3c78.6,0,146.2,48.2,174.5,116.5h3C671.2,65.9,602.3,16.5,522.1,16.5h-0.3
			c-63.3,0.1-119.5,30.9-154.3,78.3C403.9,41,465.5,5.6,535.4,5.5z"/>
		<path id="Bottom_line" class="st0" d="M344.8,135.8H2.5v10.6h751.2v-10.6H725h-2.2h-25.3h-3H670h-3.8h-24.1h-4.6H614h-5.5h-23H579
			h-22.6h-7.6H359.5H344.8z"/>
		<g>
			<path class="st1" d="M306.8,276.3c1.1,0,2.4,0.7,2.4,2c0,0.9-0.8,2-1.7,2c-1.2,0-1.7-1.4-1.7-2.5
				C305.9,277.3,305.7,276.3,306.8,276.3z"/>
			<path class="st1" d="M316.9,276.3c1.1,0,2.4,0.7,2.4,2c0,0.9-0.8,2-1.7,2c-1.2,0-1.7-1.4-1.7-2.5
				C316,277.3,315.8,276.3,316.9,276.3z"/>
			<path class="st1" d="M326.9,276.3c1.1,0,2.4,0.7,2.4,2c0,0.9-0.8,2-1.7,2c-1.2,0-1.7-1.4-1.7-2.5
				C326,277.3,325.9,276.3,326.9,276.3z"/>
			<path class="st1" d="M360.1,257.6c0,0.4-0.8,0.8-0.8,1.5c0,0.3,0.1,0.7,0.1,1c0,0.2,0,0.8-0.3,0.8c0,0-0.1-0.2-0.1-0.3
				c-0.1,0-0.2,0.1-0.2,0.1l0,0c0,0.2-0.1,2.7-0.6,2.7c-0.1,0-0.1-0.9-0.4-0.9c-0.6,0.2-0.1,1.9-0.6,1.9c-0.3,0-0.7,0.7-0.9,0.7
				c-0.1,0.9,0,2.5-0.8,2.8l0,0c0,0.3-0.8,2.3-0.9,2.6c-0.6,2.1-1.7,3.6-2.4,5.5c-0.2,0.5-1.6,2-1.9,2c-0.4,0-0.8,0.2-1.1,0.2
				c-0.2,0-0.4,0-0.5-0.1c-2.5-0.9-1.8-1.4-2.3-2c-0.6-0.8-0.6-2.3-0.6-3c0-0.4,0.1-0.9,0.1-1.3c0-0.6,0.6-1,0.6-1.7
				c0.1-0.7,0.4-1.1,0.7-1.8c0.2-0.6,0.9-2.2,1.6-3c0.6-0.7,1.4-2.1,1.6-3.1c0.1-0.4,1.5-0.7,1.8-1.7c0-0.1,1.2-0.4,1.6-0.4
				c0.6,0,1.4,0.4,2,0.4c1.2,0,1.3-2,2.2-2.2c0.2-0.1,0.9-1.6,0.9-1.6c0.1-0.5,0.3-1,0.3-1.5c0-1.2,1.1-1.5,1.1-2.2
				c0-1.4,1.5-2.5,1.8-3.8c0-0.9,0.6-1.3,0.7-2.1c0.1-1.2,1.4-2.4,2.8-2.4c0.7,0,1.6,0.7,1.6,1.4c0,2.1-1.2,3.8-1.3,5.6
				c-0.2,0.5-0.4,1.1-0.6,1.6c-0.7,1.2-0.8,2.8-0.8,3.9s-1.2,1.1-1.2,1.5s0.5,0.1,0.5,0.6c0,0.2-0.2,0.3-0.2,0.5s0.2,0.6,0.2,0.8
				c0,0.5-0.3,0.2-0.7,0.7c0,0,0,3.8-0.7,4.4c-0.4,0.3,0.2,2.4-0.7,2.4c-0.5,0-0.4-1.3-0.4-1.9c-0.1,0-0.8,0.7-0.8,0.9
				c0,0.2,0.3,0.3,0.4,0.5v1.2c-0.3,0.9-1.2,0.6-1.2,1.8c-0.1,0-0.2-0.1-0.2-0.2c0-0.7,0.5-1.5,0.5-2.1c0-0.3-0.2-0.5-0.2-0.8
				c0-0.5,0.4-1.3,0.4-1.9c0-0.2-0.1-0.5-0.1-0.8s0-0.5,0.2-0.7c0.1-0.1,0.9-1.5,0.9-2.1c0-0.1,0-0.5-0.2-0.5
				c-0.1,0-0.2,0.1-0.3,0.1c-0.1,0-0.1,0-0.1-0.2c0-1.2,0.6-2.4,0.6-3.6c0-0.8-0.3-0.9-0.8-0.9c-0.2,0-0.6,0.1-0.6,0.4
				c0,0.1,0.1,0.2,0.2,0.2C360.1,257.4,360.1,257.6,360.1,257.6z M350.2,267.7c-0.1,0.3-0.2,0.6-0.4,0.9c-0.7,1.2-1.2,3.5-1.2,4.4
				c0,0.3,0,1.7,0.5,1.7c0.4,0,2.3-4.2,3.1-5.8c0.7-1.4,1.6-2.8,2.4-4.3c0.4-0.3,1.1-1.6,1.1-1.9c0-0.1-0.1-0.2-0.2-0.4
				C353.4,262.7,351.2,264.8,350.2,267.7z M360.7,281.9c-0.3,0.7-0.4,1.3-0.4,1.9c0,0.1-0.3,2.3-1.5,2.3c-0.6,0-1.3-1.7-1.3-2.3
				c0-0.4,0.3-0.7,0.3-0.9c0-0.2-0.1-0.4-0.2-0.6c0.1-0.8,0.3-1.8,0.3-2.5c0-0.5-0.3-0.7-0.3-1c0-0.4,0.4-0.9,0.4-1.4
				c0-0.2,0-0.3,0-0.5c0-0.6,0.6-0.6,0.6-1.2c0-0.1,0-0.2,0-0.4c0-0.2,0.1-0.4,0.3-0.6c0,0.1,0,0.2,0.1,0.2c0,0,0.1,0,0.1-0.1
				s-0.2-0.1-0.2-0.1c0.6-0.6,0.9-1.8,0.9-2.3c0,0,0-0.1-0.1-0.1c-0.4,0-0.7,1.7-0.9,1.7c-0.1,0-0.3-0.1-0.3-0.2
				c0.1-0.5,0.2-1,0.4-1.4c0.2-0.2,1.6-2.7,1.7-2.7s0.2,0,0.2,0c0.6,0,0.4-1.1,0.7-1.1c0.4,0,0.6,1,0.6,1.3c0,0.6-0.8,0.8-0.8,2.1
				c0,0.4,0.2,0.7,0.2,1.1c0,0.5-0.1,1-0.1,1.5c0,0.6-0.4,0.9-0.4,1.2c0,0.2,0.3,0.4,0.3,0.7c0,0.2-0.4,0.5-0.4,0.7s0.3,0.3,0.3,0.5
				c0,0.1-0.1,0.3-0.2,0.3c-0.6,0.6-0.5,1.8-0.5,2.4c0,0.1,0,0.3,0,0.4c0,0.5-0.5,0.5-0.5,1c0-0.1,0-0.2,0-0.4
				C360.2,281.5,360.7,281.6,360.7,281.9z M358.2,261.1c0-0.1,0-0.2-0.1-0.2c0,0.2,0,0.4,0,0.5C358.2,261.3,358.2,261.2,358.2,261.1
				z M358.7,280.4c0-0.1-0.1-0.2-0.2-0.2c0,0.1-0.2,0.2-0.2,0.2s0.1,0.1,0.2,0.2C358.5,280.5,358.7,280.5,358.7,280.4z M359.2,275.9
				c0-0.1,0-0.1-0.2-0.2c0,0-0.1,0.1-0.1,0.2c0,0,0.1,0.1,0.2,0.2C359.1,276.1,359.2,276,359.2,275.9z M360.3,257.2
				c0,0.1,0,0.1-0.1,0.1s-0.1,0-0.2,0l0,0C360.1,257.3,360.2,257.3,360.3,257.2z M360.4,271.7c0,0.2,0,0.5,0.2,0.8
				c0.1-0.8,0.4-1.6,0.4-1.7s0-0.2-0.1-0.2c-0.1,0.1-0.1,0.4-0.1,0.4C360.4,271.2,360.4,271.5,360.4,271.7z M360.5,273.8
				L360.5,273.8l0.1-0.1L360.5,273.8z M361.6,263.9c0,0.1,0.1,0.2,0.1,0.2c0.1-0.2,0.2-0.2,0.2-0.4c0-0.2,0-0.1-0.2-0.2
				C361.6,263.7,361.6,263.8,361.6,263.9z M362.4,263.6c0-0.1,0-0.4-0.1-0.4s-0.1,0.1-0.1,0.2c0,0,0,0.2,0.1,0.2
				C362.3,263.6,362.4,263.6,362.4,263.6z"/>
			<path class="st1" d="M388,263.3c0.2,0,0.7,0.4,0.7,0.7c0,0.3-0.4,0.7-1.6,0.8c-1.3,0.1-2.6,0.8-3.7,1.4c-1.5,0.8-1.8,1-1.9,2.2
				c0,0.2-0.6,3.5-0.8,3.7c-0.9,0.5-0.2,1.8-0.8,2.5c-0.5,0.7-0.7,1.7-3.5,4.6l0,0c-0.3,0-1.7,0.9-2.2,1.2c-0.8-0.2-1.8-0.4-2.5-1
				c0,0-2.8-2.2-2.8-6.4c0-0.8,0.3-1.6,0.3-2.3c0-0.5,0.8-2.6,0.8-3.5s-1.1-2.5-1.1-3.7c0-4.3,1.6-4.6,4.2-4.6c0.6,0,1.2,0,1.9,0
				c1.1,0,1.9,0.9,2.9,1.2c1.1,0.4,2.5,2.1,3,3.6c0.2,0.7,0.3,1.5,0.9,1.5c0.1,0,0.2,0,0.4-0.1C384,264.4,385.8,263.5,388,263.3
				C387.9,263.4,388,263.3,388,263.3z M373,260.4c-1.2,0.2-1.9,1.8-1.9,3c0,0.4,0,1.2,0.5,1.2h0.1c0.5-0.6,0.7-0.8,0.9-0.8
				c0.1,0,0.3,0,0.6,0.2c0.2,0.1,2.6,0.7,2.6,1.6c0,0.4-0.5,1.1-0.5,1.5c0,0.3,0.3,0.4,0.5,0.4c1-0.1,3.3-0.6,3.3-1.5
				c0-0.2,0-0.5-0.1-0.7c-1-2.2-2.6-4.9-5.3-4.9C373.4,260.3,373.2,260.3,373,260.4z M378.7,268.4c-1.4,0.5-2.8,1.2-4.3,1.2
				c-0.8,0.2-1.1,1.4-1.1,2.7c0,0.2,0,0.4,0,0.6c0,0.5-0.3,1.2-0.3,1.7c0,0.8,0.5,2.5,1.5,2.5c1.9,0,3.4-4.9,4.2-5.4
				c0.4-0.3,0.4-1.4,0.5-2.2C379.2,268.9,379.3,268.4,378.7,268.4z"/>
			<path class="st1" d="M389.1,260c0.5,0,1.3,0.3,1.9,0.5c1.1,0.3,1.8,3.4,1.8,4.8c0,1-0.1,2-0.2,3c-0.3,0.7,0,1.5-0.3,2.3
				c0,0,0,0.1,0,0.2c0,0.8,0,5.3,1.1,5.3c0.1,0,0.2,0,0.2-0.1c1.7-2.1,3.1-3.9,3.7-6.6c0.2-0.8,0.7-1.3,1.3-1.3
				c0.5,0,0.9,0.2,0.9,0.7c0,0.6-1.1,1.6-1.3,2.5c-0.1,0.3-0.5,1.5-0.9,1.9c-0.4,0.2-0.2,0.7-0.4,1.1c-0.3,0.7-1,1.3-1.1,1.8
				c0,0.5-0.8,1-1,1.6c-0.4,0.8-2,1.4-2.9,1.4c-1.3,0-3-1.5-3.6-2.9c-0.4-0.8-1.4-2.3-1.4-3.5c0-0.9-0.2-1.8-0.2-2.8
				C386.7,269,387.9,260,389.1,260z M390.4,252.9c0.9,0.2,2,0.2,2,1.2c0,0.9-0.5,2.1-1.5,2.1c-0.9,0-1.2-1.3-1.2-2
				C389.7,253.7,389.8,252.9,390.4,252.9z"/>
			<path class="st1" d="M411.2,283.3c-0.2,0-0.4,0.1-0.7,0.3c-2.1,0-2.8-3-2.9-5.2c0-0.4,0-0.8,0-1.2c0-0.6-0.2-1.1-0.2-1.6
				c0-0.7,0.7-1.8,0.7-2s0-0.3,0-0.5c0-0.1,0.1-0.3,0.1-0.4c0-0.2-0.4-0.4-0.4-0.7c0-0.5,0.2-1,0.3-1.5c0-0.2-0.2-0.4-0.2-0.6
				c0-0.1,0.1-0.2,0.2-0.2c0.5-0.3,0.5-1.3,0.5-1.6c0-0.7-0.2-1.3-0.2-2c0-0.4,0.2-0.8,0.2-1.2c0-0.1,0-0.3-0.1-0.3
				c-0.4,0-2.6,2.2-2.7,3.2c-0.1,0.7-1.3,2.6-1.8,3.5c-1.2,1.9-2.2,3.7-4.4,3.7c-1.5,0-1.7-2.3-1.7-4.1c0-1.2,0.1-1.9,0.1-2.9
				c0-0.3-0.2-0.7-0.2-1c0-0.2,0.2-0.5,0.2-0.7s0-0.4,0-0.7c0-1.4,0.5-3,0.5-4.4c0-0.6,1.2-1.1,1.9-1.1c1.2,0,1.2,1,1.2,2
				c0,1.8-0.1,3.6-0.2,5.4c-0.1,0.8-0.7,1.7-0.7,2.5c0,0.1,0.1,0.2,0.2,0.3c1,0,2.3-3.2,3.8-4.3c0.4-0.5,0.8-1.3,1.3-1.8
				c0.6-0.8,2.1-1.4,2.3-1.8c0.4-0.7,1.3-0.8,1.9-0.8c1.8,0,1.6,1.4,1.6,5.5c0,0.8-0.8,1.1-0.8,1.8c0,0.1,0.1,0.3,0.1,0.5
				s-0.1,0.4-0.1,0.6c0,0.3,0.4,0.6,0.4,0.8c0,0.2-0.4,0.4-0.6,0.5c0,0.2,0.2,0.6,0.2,0.7l0,0c-0.3,0.6-0.4,1.8-0.4,3.1
				c0,1.2-0.1,3.6,0.3,3.6c0.5,0,2-3.8,2.6-5.2c0.1-0.4,0.6-0.3,0.6-0.6c0-0.6,0.1-0.9,0.5-1.4c0.7-0.8,1-2.8,2.5-2.8
				c0.3,0,0.5,0.2,0.5,0.5c0,0.7-1.3,2.8-1.8,3.1c-0.2,0.4,0,1-0.3,1.3c-0.6,0.7-0.5,1.5-1,2l-0.5,2.2c0,0.2,0.1,0.5,0.1,0.8
				c0,0.8-0.8,1.3-0.8,1.8s0,0.7-0.4,0.9c-0.1,0.1-0.6,1.4-1.2,2C411.5,283.4,411.3,283.3,411.2,283.3z M408.9,270.9
				C408.9,270.9,408.8,270.9,408.9,270.9c-0.1,0.2-0.1,0.2,0,0.3c0-0.1,0-0.1,0.1-0.2C408.9,271,408.9,270.9,408.9,270.9z
				 M410.3,277.4L410.3,277.4v-0.1V277.4z"/>
			<path class="st1" d="M431.3,278c0,0.4-0.6,1.4-1.1,1.6c0.3,0.2,0.4,0.3,0.4,0.5s-0.5,0.5-0.5,0.9c0,0.2,0.4,0.3,0.4,0.5
				c0,0.3-0.5,0.5-0.5,1c0,0.2,0.2,0.4,0.2,0.6c0,0.4-0.2,0.7-0.2,1c0,0.1-0.6,0.5-0.6,1.1c0,0.5,0.2,0.8,0.2,1.2
				c0,1.1-0.9,3.9-0.9,4.5c0,0,0,0.1,0,0.2c0,0.7-0.9,2.1-0.9,2.4c0,0.2,0.2,0.3,0.2,0.5c0,0.3-0.3,0.5-0.3,0.7c0,1-0.9,2.1-0.9,2.8
				c0,0.1,0.1,0.3,0.1,0.4c0,0.3-0.4,0.6-0.4,0.9c0,1.8-1.4,3.1-3.1,3.1c-0.4,0-0.9,0-1.3-0.3c-2.1-1.4-3.3-2.2-3.3-6.4
				c0-0.9,0.3-1.8,0.3-2.8c0-0.5,0.8-4,1.4-4.5c0.7-0.6,0.2-1.7,1-2.3c0.1-0.1,0.2-0.3,0.2-0.4c0.2-0.9,0.7-1.3,1.1-2.1
				c0.2-0.9,0.7-1.6,1.4-2.1c0.1,0,0.1-0.2,0.2-0.2c0.4-1.4,1.8-1.9,2.1-2.9c0.1-0.3,1.4-2.3,1.8-2.3c0.1,0,0.2,0,0.4,0.1
				c0.3-0.9,1.3-2.7,1.3-3.8c0-0.4-0.2-0.8-0.2-1.1c0-0.4,0.3-1,0.3-1.6c0-0.3-0.1-0.7-0.1-1.1c0-0.8,0.3-1.7,0.3-2.5
				c0-0.4,0-1.2-0.3-1.2c-0.1,0-0.2,0-0.2,0.2c-0.3,0.8-0.7,1.2-1.4,1.2c0,0-0.1,0-0.2-0.1c-0.2,0-0.5,1.2-0.9,1.4V267l0,0
				c-0.1,0.2-0.2,0.4-0.4,0.5c-0.9,0.2-1.2,1.4-1.9,1.6c-0.6,0.2-0.7,0.9-1.1,1.2c-0.4,0.5-0.7,0.5-1.1,1.2
				c-0.2,0.7-1.4,3.3-2.7,3.6c-2.4,0-3.8-1.5-3.8-3.9c0-1.1,0.4-1.6,0.5-2.2c0.2-0.7,0.5-1.5,0.7-2.2s1.1-0.9,1.3-1.6
				c0.2-0.8,1.3-1.3,1.6-2.1c0.4-1.2,3.1-3.5,5.1-3.5c0.8,0,1.4,0.1,2.2,0.3c0.9,0.2,1.5,1.2,2.1,1.2c0.2,0,0.4-0.1,0.5-0.4
				c0.7-0.8,0.5-1.1,1.1-1.1c1.2,0,3.4,0.5,3.4,2.4c0,1.6-1.5,4.4-1.5,6.7c0,0.5-0.5,1-0.5,1.6s0.2,0.6,0.5,0.6
				c0.2,0,0.5-0.1,0.7-0.3c0.2-0.2,2.2-1.2,3.1-1.2c0.4,0,1.8,0.5,1.8,1.4s-1.1,0.5-1.4,0.8c-0.5,0.5-1.2,0.4-1.7,0.7
				c-1.2,0.7-1.3,1.2-2,1.6c-0.5,0.6-0.4-0.3-1.9,1.8c-0.2,0.3-0.2,0.8-0.4,1.1c-0.1,0.1-0.4,0.7-0.4,0.8l0,0
				C431.2,277.6,431.3,277.8,431.3,278z M428.1,262c-0.7,0-5.3,3.5-5.3,3.8c0,0.4-0.6,1.4-1.2,2.1c-0.4,0.5-1.4,2-1.4,2.3
				c0.1,0.2,0,0.4,0.2,0.4h0.1c1.6-1,2.7-2.9,4.2-3.7c0.4-0.2,1.1-1.5,1.8-2c0.4-0.4,0.9-0.7,1.1-1.2c0.3-0.6,1.1-0.1,1.2-1.2
				C428.5,262.3,428.5,262,428.1,262z M426.3,292.6c0-0.4,0.5-0.8,0.5-1.3c0-1.6,0.9-3.1,0.9-4.9c0-0.7,0.5-1.1,0.5-1.6
				c0-0.2-0.4-0.4-0.4-0.5c0,0,0-0.1,0.1-0.2c0.2-0.3,0.7-2.8,0.7-4.2c0-0.2-0.4-0.4-0.5-0.4c-0.2,0-1,0.8-1.2,1.2
				c-2.7,4.8-6.1,9.2-6.1,15.4c0,1.2,0.3,2.8,1.4,3.3c0.5-0.1,1-0.3,1.5-0.4c0.3-0.4,0.5-0.8,0.9-1.2c0.4-0.3,0.2-0.9,0.4-1.2
				c0.7-0.9,0.4-2.2,1.5-3.2C426.4,293,426.3,292.8,426.3,292.6z M425.4,266.6C425.4,266.7,425.4,266.7,425.4,266.6
				c-0.1,0.2-0.1,0.2,0,0.2c0,0,0.1,0,0.1-0.1C425.5,266.7,425.5,266.7,425.4,266.6z M427,267.1L427,267.1L427,267.1L427,267.1z
				 M429.5,282.3l0.1,0.1c0,0,0.1-0.1,0.1-0.2c0,0,0,0,0-0.1C429.5,282.2,429.5,282.2,429.5,282.3z"/>
			<path class="st1" d="M479.5,284c-0.2-0.9-1.4-0.2-1.8-1.2c-0.9-0.9-1.4-2.1-1.4-3.1c0-0.9-0.7-1.9-0.7-2.2c0-0.2,0.3-0.5,0.3-0.7
				c0-0.1-0.1-0.2-0.4-0.2c0-0.3,0.1-0.6,0.1-0.9c0-0.2-0.2-0.4-0.2-0.8c0.2-0.4,0.3-0.8,0.3-1.2c0-0.5-0.1-0.9-0.3-1.3
				c0.2-0.2,0.5-0.6,0.5-1c0-0.6-0.5-0.9-0.5-1.2c0-0.3,0.4-0.6,0.4-1.2c0-0.5-0.3-0.6-0.3-0.9c0-0.2,0.1-0.3,0.1-0.5
				c0.2-1.3,0.2-2.4,0.2-3.6c0.2-0.6,0.3-0.9,0.3-1.6c-0.4,0-1.5,1.8-1.9,2.2c-0.7,0.9-1.2,3-1.7,3.4c-0.6,2.4-1.9,6-1.9,7
				c-0.1,0.4-0.3,0.5-0.5,0.5c-0.5,0-1.3-0.5-1.7-0.8c-0.4-0.2-1.1-0.2-1.1-0.7c0-0.2,0.2-0.5,0.2-0.7c0-0.5-0.7-0.7-0.7-0.9
				c0-0.1,0.2-0.3,0.2-0.5s-0.1-0.4-0.4-0.4c-0.1,0-0.1,0-0.2,0c0-0.5-0.2-1.6,0.5-1.6c0-0.1,0-0.2,0-0.3c0-0.2-0.1-0.4-0.4-0.4
				c-0.1,0-0.2,0-0.3,0c0-0.6-0.2-1.1-0.2-1.6s0.3-0.7,0.2-0.9c-0.2-0.1-0.2-0.2-0.2-0.4c0-0.2,0.2-0.3,0.2-0.8
				c-0.7,0-1.8,2.3-2.1,3.1c-0.9,2.1-1.7,5.6-1.7,8.3c0,0.8-0.7,2.6-0.8,2.6c-0.4,0.3-0.8,0.5-1.3,0.5c-1.8,0-2.7-1.9-2.7-3.4
				c0-0.5-0.4-0.7-0.5-1.1c-0.5-3.4-0.9-6.9-0.9-10c0-1.2,0.2-2.8,0.2-3.8c0-0.3-0.2-0.6-0.2-0.8c0-1.3,0.2-2.4,0.2-3.7
				c0-0.6,0.2-1.6-0.6-1.6c-0.1-0.1,0.1-0.1,0.7-0.1c-0.8-0.6-1-0.5-1.4-0.5c-0.5,0-0.5,0.1-0.8,0.6c-0.2-0.2-0.5-0.3-0.7-0.3
				c-0.4,0-0.8,0.5-1.3,0.5c-0.6,0-1.7-1.1-1.9-1.1c-1.4-0.2-2.5-1.7-2.5-3c0-0.2,0.1-0.2,0.1-0.4c0-0.3-0.2-0.6-0.2-0.9
				c0-0.6,0.2-1.2,0.8-1.7c0.6,1.1,0.3,2,1.6,2.3c1,0.2,2.2,0.6,3.3,0.5c0.1,0.2,0.3,0.3,0.4,0.3c0.4,0,0.9-0.5,1.2-0.5
				c0.2,0,0.4,0.3,0.7,0.3c1.1,0,0.8-2.9,0.8-4.1c0-0.6-0.2-1.1-0.7-1.6c0.2-0.1,0.5-0.2,0.7-0.2c2.9,0,3.1,3.2,4,4.9
				c0.7-0.1,1.4-0.2,2.3-0.2c0.3,0,0,0.3,0.7,0.3c0.2,0,0.2-0.2,0.2-0.4c0.9,0,1.8,0.2,3-0.2c0.2-0.1,0.5-0.3,0.9-0.4
				c0,0.1,0,0.1,0.1,0.3c-0.1,0.1-0.4,0.3-0.5,0.5c0.1-0.1,0.2-0.1,0.4-0.1c0.2,0,0.5,0.1,0.7,0.1s0.4-0.1,0.4-0.4
				c-0.2-0.3-0.3-0.7-0.3-1.1c0-1.5,1.5-2.3,1.5-3.1c0-0.4-0.3-0.4-0.3-1.2c0.3-0.1,0.6-0.2,0.9-0.4c-0.2-0.3-0.4-0.7-0.4-1
				c0-0.4,0.7-1.1,0.7-1.3c0.1-0.6,0.2-1.4,1-1.4c-0.1,0-0.3,0-0.4,0.1c0,0,0,0.2,0.2,0.2c0.8,0,1.5-1.1,2.2-1.1
				c0.8,0,1.6,0.3,2.5,0.3c1,0.9,1.9,1.5,1.9,3.7c0,1.6-0.9,3.3-1.8,4.7c0.1,0.2,0.2,0.3,0.3,0.3c0.2,0,0-0.3,1.3-0.3
				c0.5,0,0.9,0.2,1.4,0.4c-0.5,0.2-0.9,0.3-1.6,0.4c0,0.1,0.2,0.1,0.2,0.1c0.5,0,2.1,0.1,2.1-0.4c0-0.2-0.1-0.3-0.3-0.5
				c0.2-0.2,0.3-0.3,0.5-0.3c0.3,0,0.4,0.7,0.8,0.7c0.3,0,0.9-0.2,1.6-0.3c0.1,0,0.6,0.6,0.6,0.6c0.2-0.2,0.4-0.4,0.4-0.5
				c0.1,0.2,0.3,0.4,0.4,0.7c0.6,0.2,1.6,0,1.6,1.3c0,0.5-0.4,1-0.9,1.1c0-0.3-0.2-0.5-0.4-0.5c-0.1,0-0.2,0-0.4,0.2v-0.4
				c-0.2-0.2-0.4-0.3-0.4-0.4c-0.3,0-0.2,0-0.4,0c-0.4,0-0.8-0.3-1.2-0.3c-0.2,0-0.5,0.3-0.7,0.3c0,0-0.1,0-0.2,0
				c0-0.2,0-0.3,0.1-0.5c-0.8,0.2-1.6,0.5-2.4,0.7c0-0.2,0-0.4,0-0.5c-0.4,0-0.5,0.7-1.1,0.7c-0.1,0-0.2,0-0.3,0
				c-0.7,0-1,0.5-1.3,0.5c-1.8,0.1-2.7,1.4-3.6,3c-0.8,1-1.5,2.4-2.2,3.7c-0.2,0.4-0.6,0.6-0.9,1c0.2,0.1,0.4,0.1,0.7,0.2
				c-0.1,0.2-0.3,0.6-0.4,1c0-0.1,0-0.1,0.1-0.1c0,0.2,0.1,0.3,0.1,0.5s-0.2,0.5-0.2,0.7s0,0.4,0,0.5c-0.2,0.8-0.3,1.6-0.7,2.5
				c-0.2,0.2-0.2,0.3-0.2,0.4c0,0.2,0.2,0.3,0.5,0.5c0.2,0.5,0.2,0.9,0.2,1.4c0.8-0.4,1.1-1.7,1.4-2.3c0.6-1,1.6-2.1,2-3
				c0.4-1.4,2.9-2.3,3-2.3c1,0,2.9,1,2.9,2.8c0,0-0.7,2.1-0.6,1.9c-0.1,0.2-0.1,0.3-0.1,0.5c0,0.5,0.5,0.7,0.5,1.1
				c0,0.2-0.7,1-1.1,1.5c0.2-0.1,0.3-0.1,0.5-0.1c0,0.4-0.4,0.7-0.4,1.1c0,0.2,0.1,0.4,0.2,0.5c0,0.5-0.2,0.8-0.2,1.3
				c0,0.3,0.1,0.5,0.1,0.8c0,1.5-0.4,2.1-0.8,3.4c0.2,0,0.3-0.1,0.4-0.1c0.2,0,0.3,0.1,0.3,0.3c0,0.2-0.1,0.5-0.1,0.7
				c0,0.3,0,0.6,0,0.9c0,0.4-0.4,0.7-1,1.2c0.8,0.2,1.1,0.2,1.1,0.7c0,0.2,0,0.5-0.1,0.8c0.2,0,0.3,0,0.4,0c0.1,1.1,0.1,2.1,1.1,2.9
				c0.3-1.6,0.2-2.9,0.9-2.9c-0.2-0.3-0.4-0.7-0.4-1.5c0-0.1,0-0.2,0.2-0.2c0.1,0,0.2,0,0.3,0.2c0.1-0.1,0.2-0.2,0.2-0.3
				c0-0.2-0.2-0.3-0.4-0.4c0-0.5,0-1,0.2-1.4c0-0.8-0.1-1.6-0.1-2.3c0.1-0.1,0.3-0.3,0.3-0.5c0-0.1,0-0.2,0-0.3
				c0-0.5,0.4-1.2,0.3-1.3c0-0.9,0.2-0.8,0.2-1.1c0-0.1-0.3-0.2-0.3-0.3c0-0.2,0.1-0.5,0.1-0.7c0.2,0.1,0.2,0.2,0.4,0.4
				c0.7-1.8,1-3.9,2.5-3.9c0.5,0,1.4,0.4,1.4,0.9c0,0.1,0,0.2-0.2,0.4c-0.9,1-1.4,2.3-1.8,3.7c-0.2,0.5-0.4,1-0.4,1.6
				c0,0.2,0.1,0.5,0.1,0.7s-0.2,0.6-0.2,0.9c-0.1,0.8-0.3,1.8-0.3,2.2c0,0.6,0.2,1,0.2,1.6c-0.2,0.7-0.2,1.3-0.3,2
				c0,0.7-0.3,1.9-0.5,2.3c-0.2,0.7-0.4,2.5-1.4,2.5c-0.2,0-0.6,0-0.7-0.2l-0.4,0.5h0.5V284z M467.3,255.6c0-0.5,0.4-0.9,0.4-1.2
				c0.1-0.6,0.1-0.9,0.1-1.5c-0.9,0.4-1.8,0.8-2.8,1.2c0-0.1,0-0.1,0-0.2c0-0.3-0.2-0.5-0.4-0.6c-1.2,0-2,1.4-2.8,1.4
				c-0.1,0-0.2,0-0.4,0c0,0.2-0.9,0.8-0.9,1.3c0,0.2,0.1,0.4,0.1,0.6c0,0.5-0.2,1.1-0.7,1.5c0.5,0,0.7,0.3,0.7,0.5
				c0,0.4-0.5,2.4-0.4,2.3c0,1.3-0.3,1.4-0.3,2c0.3,0,0.3,0.1,0.3,0.2c0,0.2,0,0.3,0,0.5s0,0.4,0,0.5c0,0.6-0.1,1.2-0.6,1.6
				c-0.1,0.2,0.5,0.7,0.5,1.2s-0.5,0.8-0.5,1.2c0,0.5,0.5,1,0.5,1.6s-0.3,1.1-0.3,1.6c0.2,0.2,0.2,0.4,0.2,0.6s-0.1,0.4-0.2,0.6
				c0.1,0.5,0.3,1.2,0.4,1.7c0,0.5-0.1,1.2-0.1,1.8s0,1.8,0.5,1.8c0.1-0.3,0.4-0.7,0.4-1c0.4-2.5,0.3-5.1,1.4-7.4
				c1.2-3.7,3.6-5.3,4.2-7.7c0-0.2,0.2-0.5,0.3-0.7c-0.1-0.6-0.2-1.2-0.2-1.7s0.2-1,0.7-1.4c-0.3-0.1-0.3-0.1-0.4-0.1
				c0.4-0.4,0.7-0.7,1.1-1.1C467.5,256.3,467.3,255.9,467.3,255.6z M464.7,252.8c0,0.2,0.3,0.3,0.5,0.3s0.5-0.1,0.7-0.3H464.7z
				 M467.2,252.8c0.2-0.1,0.9-0.1,0.9-0.5c0-0.2-0.2-0.2-0.2-0.2c-0.2,0-0.5,0.3-0.7,0.5C467.1,252.5,467.2,252.6,467.2,252.8z
				 M467.2,265.1c0,0.2,0.2,0.3,0.5,0.5c0-0.2,0.2-0.5,0.2-0.7c0-0.1-0.1-0.2-0.2-0.4C467.4,264.8,467.2,264.9,467.2,265.1z
				 M468.6,270.2c-0.2,0.1-0.6,0.1-0.9,0.2c0.1,0.2,0.1,0.3,0.3,0.3c0.3-0.1,0.5-0.1,0.6-0.3C468.6,270.3,468.6,270.2,468.6,270.2z
				 M468.8,263.5c-0.3,0.1-0.5,0.1-0.7,0.2c0.2,0.3,0.2,0.4,0.4,0.7C468.6,263.9,468.5,264.2,468.8,263.5L468.8,263.5z M471,253.6
				c0,0.1,0,0.3,0.1,0.4c0.2-0.3,0.6-0.5,0.6-0.8c0-0.1,0-0.2-0.1-0.4C471.3,253,471,253.3,471,253.6z M474,249.3
				c1.2-0.4,1.4-1.7,2-2.6c0.5-0.8,0.4-2.5,0.4-3.1s-0.5-1.6-1-1.6c-0.3,0.1-0.7,0.3-0.7,0.5c-0.1,0.9-0.5,1.4-1.4,1.6
				c0,0.2,0,0.4,0,0.5s0,0.1,0,0.2c-0.5,0.5-1.1,2.9-1.1,2.8c0,0.9-0.2,1.1-0.4,1.8C472.8,249.3,473.4,249.3,474,249.3z"/>
			<path class="st1" d="M486.5,260c0.5,0,1.3,0.3,1.9,0.5c1.1,0.3,1.8,3.4,1.8,4.8c0,1-0.1,2-0.2,3c-0.3,0.7,0,1.5-0.3,2.3
				c0,0,0,0.1,0,0.2c0,0.8,0,5.3,1.1,5.3c0.1,0,0.2,0,0.2-0.1c1.7-2.1,3.1-3.9,3.7-6.6c0.2-0.8,0.7-1.3,1.3-1.3
				c0.5,0,0.9,0.2,0.9,0.7c0,0.6-1.1,1.6-1.3,2.5c-0.1,0.3-0.5,1.5-0.9,1.9c-0.4,0.2-0.2,0.7-0.4,1.1c-0.3,0.7-1,1.3-1.1,1.8
				c0,0.5-0.8,1-1,1.6c-0.4,0.8-2,1.4-2.9,1.4c-1.3,0-3-1.5-3.6-2.9c-0.4-0.8-1.4-2.3-1.4-3.5c0-0.9-0.2-1.8-0.2-2.8
				C484.2,269,485.3,260,486.5,260z M487.9,252.9c0.9,0.2,2,0.2,2,1.2c0,0.9-0.5,2.1-1.5,2.1c-0.9,0-1.2-1.3-1.2-2
				C487.1,253.7,487.2,252.9,487.9,252.9z"/>
			<path class="st1" d="M508.7,283.3c-0.2,0-0.4,0.1-0.7,0.3c-2.1,0-2.8-3-2.9-5.2c0-0.4,0-0.8,0-1.2c0-0.6-0.2-1.1-0.2-1.6
				c0-0.7,0.7-1.8,0.7-2s0-0.3,0-0.5c0-0.1,0.1-0.3,0.1-0.4c0-0.2-0.4-0.4-0.4-0.7c0-0.5,0.2-1,0.3-1.5c0-0.2-0.2-0.4-0.2-0.6
				c0-0.1,0.1-0.2,0.2-0.2c0.5-0.3,0.5-1.3,0.5-1.6c0-0.7-0.2-1.3-0.2-2c0-0.4,0.2-0.8,0.2-1.2c0-0.1,0-0.3-0.1-0.3
				c-0.4,0-2.6,2.2-2.7,3.2c-0.1,0.7-1.3,2.6-1.8,3.5c-1.2,1.9-2.2,3.7-4.4,3.7c-1.5,0-1.7-2.3-1.7-4.1c0-1.2,0.1-1.9,0.1-2.9
				c0-0.3-0.2-0.7-0.2-1c0-0.2,0.2-0.5,0.2-0.7s0-0.4,0-0.7c0-1.4,0.5-3,0.5-4.4c0-0.6,1.2-1.1,1.9-1.1c1.2,0,1.2,1,1.2,2
				c0,1.8-0.1,3.6-0.2,5.4c-0.1,0.8-0.7,1.7-0.7,2.5c0,0.1,0.1,0.2,0.2,0.3c1,0,2.3-3.2,3.8-4.3c0.4-0.5,0.8-1.3,1.3-1.8
				c0.6-0.8,2.1-1.4,2.3-1.8c0.4-0.7,1.3-0.8,1.9-0.8c1.8,0,1.6,1.4,1.6,5.5c0,0.8-0.8,1.1-0.8,1.8c0,0.1,0.1,0.3,0.1,0.5
				s-0.1,0.4-0.1,0.6c0,0.3,0.4,0.6,0.4,0.8c0,0.2-0.4,0.4-0.6,0.5c0,0.2,0.2,0.6,0.2,0.7l0,0c-0.3,0.6-0.4,1.8-0.4,3.1
				c0,1.2-0.1,3.6,0.3,3.6c0.5,0,2-3.8,2.6-5.2c0.1-0.4,0.6-0.3,0.6-0.6c0-0.6,0.1-0.9,0.5-1.4c0.7-0.8,1-2.8,2.5-2.8
				c0.3,0,0.5,0.2,0.5,0.5c0,0.7-1.3,2.8-1.8,3.1c-0.2,0.4,0,1-0.3,1.3c-0.6,0.7-0.5,1.5-1,2l-0.5,2.2c0,0.2,0.1,0.5,0.1,0.8
				c0,0.8-0.8,1.3-0.8,1.8s0,0.7-0.4,0.9c-0.1,0.1-0.6,1.4-1.2,2C509,283.4,508.8,283.3,508.7,283.3z M506.3,270.9L506.3,270.9
				c-0.1,0.2-0.1,0.2,0,0.3c0-0.1,0-0.1,0.1-0.2C506.4,271,506.4,270.9,506.3,270.9z M507.8,277.4L507.8,277.4v-0.1V277.4z"/>
			<path class="st1" d="M528.7,278c0,0.4-0.6,1.4-1.1,1.6c0.3,0.2,0.4,0.3,0.4,0.5s-0.5,0.5-0.5,0.9c0,0.2,0.4,0.3,0.4,0.5
				c0,0.3-0.5,0.5-0.5,1c0,0.2,0.2,0.4,0.2,0.6c0,0.4-0.2,0.7-0.2,1c0,0.1-0.6,0.5-0.6,1.1c0,0.5,0.2,0.8,0.2,1.2
				c0,1.1-0.9,3.9-0.9,4.5c0,0,0,0.1,0,0.2c0,0.7-0.9,2.1-0.9,2.4c0,0.2,0.2,0.3,0.2,0.5c0,0.3-0.3,0.5-0.3,0.7c0,1-0.9,2.1-0.9,2.8
				c0,0.1,0.1,0.3,0.1,0.4c0,0.3-0.4,0.6-0.4,0.9c0,1.8-1.4,3.1-3.1,3.1c-0.4,0-0.9,0-1.3-0.3c-2.1-1.4-3.3-2.2-3.3-6.4
				c0-0.9,0.3-1.8,0.3-2.8c0-0.5,0.8-4,1.4-4.5c0.7-0.6,0.2-1.7,1-2.3c0.1-0.1,0.2-0.3,0.2-0.4c0.2-0.9,0.7-1.3,1.1-2.1
				c0.2-0.9,0.7-1.6,1.4-2.1c0.1,0,0.1-0.2,0.2-0.2c0.4-1.4,1.8-1.9,2.1-2.9c0.1-0.3,1.4-2.3,1.8-2.3c0.1,0,0.2,0,0.4,0.1
				c0.3-0.9,1.3-2.7,1.3-3.8c0-0.4-0.2-0.8-0.2-1.1c0-0.4,0.3-1,0.3-1.6c0-0.3-0.1-0.7-0.1-1.1c0-0.8,0.3-1.7,0.3-2.5
				c0-0.4,0-1.2-0.3-1.2c-0.1,0-0.2,0-0.2,0.2c-0.3,0.8-0.7,1.2-1.4,1.2c0,0-0.1,0-0.2-0.1c-0.2,0-0.5,1.2-0.9,1.4V267l0,0
				c-0.1,0.2-0.2,0.4-0.4,0.5c-0.9,0.2-1.2,1.4-1.9,1.6c-0.6,0.2-0.7,0.9-1.1,1.2c-0.4,0.5-0.7,0.5-1.1,1.2
				c-0.2,0.7-1.4,3.3-2.7,3.6c-2.4,0-3.8-1.5-3.8-3.9c0-1.1,0.4-1.6,0.5-2.2c0.2-0.7,0.5-1.5,0.7-2.2s1.1-0.9,1.3-1.6
				c0.2-0.8,1.3-1.3,1.6-2.1c0.4-1.2,3.1-3.5,5.1-3.5c0.8,0,1.4,0.1,2.2,0.3c0.9,0.2,1.5,1.2,2.1,1.2c0.2,0,0.4-0.1,0.5-0.4
				c0.7-0.8,0.5-1.1,1.1-1.1c1.2,0,3.4,0.5,3.4,2.4c0,1.6-1.5,4.4-1.5,6.7c0,0.5-0.5,1-0.5,1.6s0.2,0.6,0.5,0.6
				c0.2,0,0.5-0.1,0.7-0.3c0.2-0.2,2.2-1.2,3.1-1.2c0.4,0,1.8,0.5,1.8,1.4s-1.1,0.5-1.4,0.8c-0.5,0.5-1.2,0.4-1.7,0.7
				c-1.2,0.7-1.3,1.2-2,1.6c-0.5,0.6-0.4-0.3-1.9,1.8c-0.2,0.3-0.2,0.8-0.4,1.1c-0.1,0.1-0.4,0.7-0.4,0.8l0,0
				C528.7,277.6,528.7,277.8,528.7,278z M525.6,262c-0.7,0-5.3,3.5-5.3,3.8c0,0.4-0.6,1.4-1.2,2.1c-0.4,0.5-1.4,2-1.4,2.3
				c0.1,0.2,0,0.4,0.2,0.4h0.1c1.6-1,2.7-2.9,4.2-3.7c0.4-0.2,1.1-1.5,1.8-2c0.4-0.4,0.9-0.7,1.1-1.2c0.3-0.6,1.1-0.1,1.2-1.2
				C526,262.3,525.9,262,525.6,262z M523.8,292.6c0-0.4,0.5-0.8,0.5-1.3c0-1.6,0.9-3.1,0.9-4.9c0-0.7,0.5-1.1,0.5-1.6
				c0-0.2-0.4-0.4-0.4-0.5c0,0,0-0.1,0.1-0.2c0.2-0.3,0.7-2.8,0.7-4.2c0-0.2-0.4-0.4-0.5-0.4c-0.2,0-1,0.8-1.2,1.2
				c-2.7,4.8-6.1,9.2-6.1,15.4c0,1.2,0.3,2.8,1.4,3.3c0.5-0.1,1-0.3,1.5-0.4c0.3-0.4,0.5-0.8,0.9-1.2c0.4-0.3,0.2-0.9,0.4-1.2
				c0.7-0.9,0.4-2.2,1.5-3.2C523.8,293,523.8,292.8,523.8,292.6z M522.9,266.6C522.9,266.7,522.9,266.7,522.9,266.6
				c-0.1,0.2-0.1,0.2,0,0.2c0,0,0.1,0,0.1-0.1C522.9,266.7,522.9,266.7,522.9,266.6z M524.5,267.1L524.5,267.1L524.5,267.1
				L524.5,267.1z M526.9,282.3l0.1,0.1c0,0,0.1-0.1,0.1-0.2c0,0,0,0,0-0.1C527,282.2,526.9,282.2,526.9,282.3z"/>
			<path class="st1" d="M548.8,275.4c0,1-0.6,1.7-1.7,1.7c-0.5,0-0.7-1.1-0.8-1.7c-1.5,0-1.8,1.6-3.1,2.2c-1.2,0.6-1.9,1.8-2.7,2.3
				c-0.9,0.3-1.5,2-2.2,3c-0.3,0.5-0.2,1.2-0.3,1.8c0,0.4,0.5,0.5,0.8,0.5s0.6-0.1,0.9-0.1c0.2,0,0.3,0,0.4,0c0.8,0,0.6-1.3,1.6-1.6
				c1.1-0.3,1.3-1.5,1.8-2.7c0.4-0.7,1.4-2,1.4-2.8l0,0c0.1,0,0.8-1.3,0.9-1.3c0.6,0,0.4,1,0.6,1c0.1,0,0.2,0,0.5,0
				c0.1,0,0.3,0.1,0.3,0.2c0,0.7-0.7,1.3-1.7,1.9c-0.2,0-0.3,0-0.4-0.1l0.1,0.1v-0.1c0.1,0,0.3,0.1,0.4,0.1c0,0.9,0,1.7-0.7,2
				c-0.5,0.1-0.3,1-0.8,1.2c-0.7,0.3-0.2,1.5-1.2,1.5c-0.5,0-0.6,0.8-1,0.9c-0.3,0.1-0.5,0.2-0.7,0.5c-0.9,0.8-1.5,0.8-2.4,0.8
				s-0.9,0.7-1.4,0.7c-1,0-2.2-2.1-2.2-2.9c0-0.1,0.5-1,0.7-1.6c0-0.3,0.7-3.7,2.7-4.9c0.7-0.4,0.7-1.3,1.6-1.5
				c1.2-0.3,1.7-1.8,2.1-1.8c0.8-0.1,0.8-1,1.6-1c0.9,0,1.1-1.4,2.1-1.7c1.6-0.4,1.4-2.1,1.7-4.2c0-0.5-0.4-1.2-0.9-1.2
				c-0.2,0-0.4,0.1-0.5,0.1c-0.2,0-0.5-0.2-0.7-0.2c-0.5,0-1.3,0.7-2.5,1.1c-0.9,0.3-1.1,0.5-1.9,1.1c-0.3-0.1-0.5-0.3-0.6-0.3
				c0,0-1.3,1.2-2.9,1.2c-0.2,0-0.3-0.6-0.5-0.7c-1.3-0.5-2.2-1.2-2.2-2.4c0-0.1,0.1-0.2,0.1-0.4c0-0.3-0.1-0.5-0.1-0.8
				c0-0.4,0.3-0.8,0.3-1.3c0-0.9,0.5-1.6,1.1-2.1c0.4-0.4,1.7-1.8,1.7-1.9c0.3-1.1,1.5-0.7,1.8-1.8c0.2-0.5,1.3-0.8,1.7-1.5
				c0.6-1,1.3-1.4,2-2.1c0.8,0.2,3.1,0.2,3.3,1.6c0,0.2-0.1,0.5-0.3,0.5c-1.1,0.2-2.1,1.2-2.6,2.1c-0.7,0.9-2.1,1-2.6,3
				c-0.2,0.6-1.2,0.9-1.5,1.9c-0.2,0.4-0.7,1-0.7,1.4c0,0.2,0.1,0.3,0.4,0.3c0.1,0,0.2,0,0.2,0c1.9-0.5,4.6-1.5,7.6-1.5
				c1.5,0,2.1,0.4,2.9,1.3c0.2,0.5,0,1.2,0.4,1.6c0.2-0.1,0.4-0.3,0.5-0.3c0.3,0,0.3,1,0.4,1.4c0.7,0.1,0.2,0.9,1.3,0.9
				c0.3,0,0.5,0,0.7-0.2c0.7-0.4,1.4-0.1,2.2-0.4c0.5,0.2,1.9,0.2,1.9,0.9c0,0.6-0.8,1.2-1.3,1.2c-0.2,0-0.4-0.1-0.6-0.1
				c-0.8,0-3.4,0.5-3.9,1.8c-0.1,0.2-0.2,0.2-0.4,0.2c-0.1,0-0.3,0-0.4,0c-0.4,0-1.5,1-1.5,1.7c0,0.1,0,0.2,0,0.4
				c0,0.2-0.1,0.2-0.2,0.2c-0.2,0-0.3,0-0.4,0c-0.4,0-0.6,0.3-0.6,0.8c0,0.3,0,0.6,0.2,0.9c-0.2,0-0.3-0.2-0.4-0.2
				c-0.2,0-0.2,0.1-0.3,0.3c0.7,0,0.7-0.4,0.7-1.1c0-0.2,0-0.4,0-0.6C548.7,274.9,548.8,275.1,548.8,275.4z"/>
			<path class="st1" d="M581.3,257.6c0,0.4-0.8,0.8-0.8,1.5c0,0.3,0.1,0.7,0.1,1c0,0.2,0,0.8-0.3,0.8c0,0-0.1-0.2-0.1-0.3
				c-0.1,0-0.2,0.1-0.2,0.1l0,0c0,0.2-0.1,2.7-0.6,2.7c-0.1,0-0.1-0.9-0.4-0.9c-0.6,0.2-0.1,1.9-0.6,1.9c-0.3,0-0.7,0.7-0.9,0.7
				c-0.1,0.9,0,2.5-0.8,2.8l0,0c0,0.3-0.8,2.3-0.9,2.6c-0.6,2.1-1.7,3.6-2.4,5.5c-0.2,0.5-1.6,2-1.9,2c-0.4,0-0.8,0.2-1.1,0.2
				c-0.2,0-0.4,0-0.5-0.1c-2.5-0.9-1.8-1.4-2.3-2c-0.6-0.8-0.6-2.3-0.6-3c0-0.4,0.1-0.9,0.1-1.3c0-0.6,0.6-1,0.6-1.7
				c0.1-0.7,0.4-1.1,0.7-1.8c0.2-0.6,0.9-2.2,1.6-3c0.6-0.7,1.4-2.1,1.6-3.1c0.1-0.4,1.5-0.7,1.8-1.7c0-0.1,1.2-0.4,1.6-0.4
				c0.6,0,1.4,0.4,2,0.4c1.2,0,1.3-2,2.2-2.2c0.2-0.1,0.9-1.6,0.9-1.6c0.1-0.5,0.3-1,0.3-1.5c0-1.2,1.1-1.5,1.1-2.2
				c0-1.4,1.5-2.5,1.8-3.8c0-0.9,0.6-1.3,0.7-2.1c0.1-1.2,1.4-2.4,2.8-2.4c0.7,0,1.6,0.7,1.6,1.4c0,2.1-1.2,3.8-1.3,5.6
				c-0.2,0.5-0.4,1.1-0.6,1.6c-0.7,1.2-0.8,2.8-0.8,3.9s-1.2,1.1-1.2,1.5s0.5,0.1,0.5,0.6c0,0.2-0.2,0.3-0.2,0.5s0.2,0.6,0.2,0.8
				c0,0.5-0.3,0.2-0.7,0.7c0,0,0,3.8-0.7,4.4c-0.4,0.3,0.2,2.4-0.7,2.4c-0.5,0-0.4-1.3-0.4-1.9c-0.1,0-0.8,0.7-0.8,0.9
				c0,0.2,0.3,0.3,0.4,0.5v1.2c-0.3,0.9-1.2,0.6-1.2,1.8c-0.1,0-0.2-0.1-0.2-0.2c0-0.7,0.5-1.5,0.5-2.1c0-0.3-0.2-0.5-0.2-0.8
				c0-0.5,0.4-1.3,0.4-1.9c0-0.2-0.1-0.5-0.1-0.8s0-0.5,0.2-0.7c0.1-0.1,0.9-1.5,0.9-2.1c0-0.1,0-0.5-0.2-0.5
				c-0.1,0-0.2,0.1-0.3,0.1s-0.1,0-0.1-0.2c0-1.2,0.6-2.4,0.6-3.6c0-0.8-0.3-0.9-0.8-0.9c-0.2,0-0.6,0.1-0.6,0.4
				c0,0.1,0.1,0.2,0.2,0.2C581.3,257.4,581.3,257.6,581.3,257.6z M571.4,267.7c-0.1,0.3-0.2,0.6-0.4,0.9c-0.7,1.2-1.2,3.5-1.2,4.4
				c0,0.3,0,1.7,0.5,1.7c0.4,0,2.3-4.2,3.1-5.8c0.7-1.4,1.6-2.8,2.4-4.3c0.4-0.3,1.1-1.6,1.1-1.9c0-0.1-0.1-0.2-0.2-0.4
				C574.7,262.7,572.5,264.8,571.4,267.7z M581.9,281.9c-0.3,0.7-0.4,1.3-0.4,1.9c0,0.1-0.3,2.3-1.5,2.3c-0.6,0-1.3-1.7-1.3-2.3
				c0-0.4,0.3-0.7,0.3-0.9c0-0.2-0.1-0.4-0.2-0.6c0.1-0.8,0.3-1.8,0.3-2.5c0-0.5-0.3-0.7-0.3-1c0-0.4,0.4-0.9,0.4-1.4
				c0-0.2,0-0.3,0-0.5c0-0.6,0.6-0.6,0.6-1.2c0-0.1,0-0.2,0-0.4c0-0.2,0.1-0.4,0.3-0.6c0,0.1,0,0.2,0.1,0.2c0,0,0.1,0,0.1-0.1
				s-0.2-0.1-0.2-0.1c0.6-0.6,0.9-1.8,0.9-2.3c0,0,0-0.1-0.1-0.1c-0.4,0-0.7,1.7-0.9,1.7c-0.1,0-0.3-0.1-0.3-0.2
				c0.1-0.5,0.2-1,0.4-1.4c0.2-0.2,1.6-2.7,1.7-2.7c0.1,0,0.2,0,0.2,0c0.6,0,0.4-1.1,0.7-1.1c0.4,0,0.6,1,0.6,1.3
				c0,0.6-0.8,0.8-0.8,2.1c0,0.4,0.2,0.7,0.2,1.1c0,0.5-0.1,1-0.1,1.5c0,0.6-0.4,0.9-0.4,1.2c0,0.2,0.3,0.4,0.3,0.7
				c0,0.2-0.4,0.5-0.4,0.7s0.3,0.3,0.3,0.5c0,0.1-0.1,0.3-0.2,0.3c-0.6,0.6-0.5,1.8-0.5,2.4c0,0.1,0,0.3,0,0.4c0,0.5-0.5,0.5-0.5,1
				c0-0.1,0-0.2,0-0.4C581.5,281.5,581.9,281.6,581.9,281.9z M579.5,261.1c0-0.1,0-0.2-0.1-0.2c0,0.2,0,0.4,0,0.5
				C579.4,261.3,579.5,261.2,579.5,261.1z M579.9,280.4c0-0.1-0.1-0.2-0.2-0.2c0,0.1-0.2,0.2-0.2,0.2s0.1,0.1,0.2,0.2
				C579.8,280.5,579.9,280.5,579.9,280.4z M580.4,275.9c0-0.1,0-0.1-0.2-0.2c0,0-0.1,0.1-0.1,0.2c0,0,0.1,0.1,0.2,0.2
				C580.4,276.1,580.4,276,580.4,275.9z M581.5,257.2c0,0.1,0,0.1-0.1,0.1s-0.1,0-0.2,0l0,0C581.3,257.3,581.4,257.3,581.5,257.2z
				 M581.6,271.7c0,0.2,0,0.5,0.2,0.8c0.1-0.8,0.4-1.6,0.4-1.7s0-0.2-0.1-0.2c-0.1,0.1-0.1,0.4-0.1,0.4
				C581.6,271.2,581.6,271.5,581.6,271.7z M581.7,273.8L581.7,273.8l0.1-0.1L581.7,273.8z M582.8,263.9c0,0.1,0.1,0.2,0.1,0.2
				c0.1-0.2,0.2-0.2,0.2-0.4c0-0.2,0-0.1-0.2-0.2C582.9,263.7,582.8,263.8,582.8,263.9z M583.6,263.6c0-0.1,0-0.4-0.1-0.4
				s-0.1,0.1-0.1,0.2C583.4,263.4,583.4,263.6,583.6,263.6C583.5,263.6,583.6,263.6,583.6,263.6z"/>
			<path class="st1" d="M592,260c0.5,0,1.3,0.3,1.9,0.5c1.1,0.3,1.8,3.4,1.8,4.8c0,1-0.1,2-0.2,3c-0.3,0.7,0,1.5-0.3,2.3
				c0,0,0,0.1,0,0.2c0,0.8,0,5.3,1.1,5.3c0.1,0,0.2,0,0.2-0.1c1.7-2.1,3.1-3.9,3.7-6.6c0.2-0.8,0.7-1.3,1.3-1.3
				c0.5,0,0.9,0.2,0.9,0.7c0,0.6-1.1,1.6-1.3,2.5c-0.1,0.3-0.5,1.5-0.9,1.9c-0.4,0.2-0.2,0.7-0.4,1.1c-0.3,0.7-1,1.3-1.1,1.8
				c0,0.5-0.8,1-1,1.6c-0.4,0.8-2,1.4-2.9,1.4c-1.3,0-3-1.5-3.6-2.9c-0.4-0.8-1.4-2.3-1.4-3.5c0-0.9-0.2-1.8-0.2-2.8
				C589.6,269,590.8,260,592,260z M593.3,252.9c0.9,0.2,2,0.2,2,1.2c0,0.9-0.5,2.1-1.5,2.1c-0.9,0-1.2-1.3-1.2-2
				C592.6,253.7,592.7,252.9,593.3,252.9z"/>
			<path class="st1" d="M602.8,265.4c0.1-0.9,0.6-1.6,0.6-2.4c0-0.1,0-0.2,0-0.3c0.5-0.9,0.9-2.8,0.9-3.3c0-0.1,1.3-3.9,1.3-3.7
				c0.6-0.9,0.5-2.6,1-3c0.5-0.5,0.8-1.2,0.8-1.9c0-0.6,0.5-1.1,0.5-1.4c0-0.7,0.8-2,0.9-2.2c0.3-0.5,0.2-0.9,0.3-1.3
				c1.8-1.8,0.6-3,3.3-3c1.8,0,2.6,1.4,2.6,2.9c0,0.3-0.1,3.1-0.7,4c0,1.1-0.7,2-0.7,3.2c0,0.1-1,2.3-1.6,2.9c0,0.3,0,0.7-0.1,1.1
				c-0.1,0.3-0.5,0.4-0.5,0.7c0,1.1-0.7,0.4-0.7,1.7c0,1.4-1.3,1.9-1.4,2.8c-0.2,1.6-1.6,2-1.9,4.2c-0.1,0.9-1.7,1.7-1.7,2.7
				c0,0.6-1.1,1.3-1.1,1.9c0,0,0,0.3,0.2,0.3c3-1,6.8-4.4,9.2-4.4c0.3,0,0.7,0.3,0.7,0.5c0,0.3-0.3,0.5-0.5,0.6
				c-4.2,1.9-7.2,4.1-10.8,6.6c-0.5,0.4-0.7,1.7-0.9,2.5c1.8,3.9,2,8.3,2,13c0,0.3-0.2,0.7-0.2,0.9c0,0.3,0.2,0.8,0.2,1.2
				c0,0.5-0.5,2.3-0.5,2.8c0,0.3,0.1,0.6,0.1,0.9c0,1.8-0.7,3.6-0.7,5.3c0,0.3,0,0.6,0,0.9c0,0.6-0.4,1.2-0.4,1.5
				c0,0.2,0.1,0.5,0.1,0.7c0,0.6-0.3,1-0.7,1c-0.6,0-1.1-0.1-1.7-0.2c-0.7,0-1.3-3.1-1.3-4.4c0-0.2,0.1-0.4,0.1-0.6s0-0.3,0-0.5
				s0-0.4,0.2-0.5c0-0.4,0-0.8,0-1.2c0-0.2-0.4-0.2-0.4-0.4c0-0.1,0.1-0.2,0.1-0.3c0-0.2-0.1-0.3-0.1-0.5c0-0.6,0.2-1.3,0.2-1.8
				c0-0.4-0.2-0.8-0.2-1.2c0-0.6,0.5-0.9,0.5-1.6c0-0.3-0.1-0.6-0.4-0.8c0.1,0,0.1-0.1,0.1-0.2s-0.2-0.3-0.2-0.4
				c0-0.2,0.5-0.2,0.5-0.6c0-0.3-0.1-0.6-0.1-0.9c0-0.7,0.3-1.4,0.3-2.1c0-0.4-0.2-0.7-0.2-1.1c0-0.2,0-0.3,0.1-0.5
				c0.3-0.7,0.1-1.4,0.2-2.1c0-0.1-0.1-0.3-0.1-0.4l0,0c0.4-0.7,0.2-1.5,0.4-2.3c0-0.4-0.2-0.5-0.5-0.7c0-0.5,0.1-1.1,0.1-1.6
				c0-0.2-0.1-0.5-0.1-0.7c-0.1-0.9-2.2-1.1-2.2-2.1c0-0.8,1.1-1.1,1.5-1.2c1.9-0.5,2.8-3.3,2.8-5.4c0-0.2,0-0.4,0-0.5
				c0-0.6,0.5-0.9,0.5-1.5C602.6,266.3,602.7,265.8,602.8,265.4z M599.5,291.2c0,0.2,0,0.2-0.1,0.2l0,0c0-0.1,0-0.3,0-0.5
				C599.4,290.9,599.4,291.1,599.5,291.2z M600,282.5L600,282.5C600.1,282.5,600.1,282.5,600,282.5C600.1,282.5,600,282.5,600,282.5
				L600,282.5z M600.9,283.1C600.8,283.1,600.8,283.1,600.9,283.1c-0.1,0.2,0,0.2,0,0.3C600.9,283.3,600.9,283.3,600.9,283.1
				C600.9,283.2,600.9,283.1,600.9,283.1z M602.6,294.5c0.3-0.8,0.3-2.1,0.3-3c0-1.1,0.2-2.1,0.2-3c0-0.5-0.1-0.9-0.1-1.3
				c0-1.1,0-5.3-0.9-5.3c-0.3,0-0.4,0.2-0.4,0.5s0,0.7,0,1c0,0.9-0.3,2.1-0.3,2.9c0,0.3,0,0.7,0,1c0,0.7-0.2,1.4-0.2,2.1
				c0,0.4,0.2,0.9,0.2,1.3c0,0.5-0.2,1.3-0.2,1.9c0,1.2,0.2,2.4,0.2,3.7c0,0.2-0.1,0.5-0.1,0.8c0,0.2,0,0.4,0.1,0.5
				c0,0.1-0.1,0.2-0.1,0.4c0,0.3,0.2,0.5,0.4,0.8C602.5,297.3,602.3,296.1,602.6,294.5z M602.3,266.5L602.3,266.5
				c0.1,0,0.2,0,0.2,0.1v0.1l0,0C602.4,266.6,602.4,266.6,602.3,266.5z M609.7,259.5L609.7,259.5c0-0.2,0-0.2-0.1-0.3
				c0.1-0.3,0.2-0.6,0.2-0.9c0-0.2,0-0.3,0-0.5c0-0.7,0.5-1.2,0.7-2c0.1-0.8,1.2-2.4,1.2-2.8c0-0.1,0-0.2,0-0.3
				c0-0.8,0.7-1.8,0.7-2.8c0-0.6,0.4-1.2,0.4-1.6c0-0.1-0.1-0.2-0.1-0.3c0-0.3,0.2-0.6,0.2-0.9c0-0.4-0.4-0.7-0.5-1
				c-0.8,0.1-1.4,1.7-1.8,2.6c-1.4,3.6-2.5,6.6-3.8,10c-0.2,0.5-0.3,1.4-0.4,1.6c-0.8,1-0.8,3.9-1.6,5.7c0,0.1,0.1,0.3,0.1,0.4
				c0.4-0.1,0.7-0.2,0.8-0.6c0.1-0.5,0.7-0.6,0.7-1.2c0-1.1,0.2-1,0.9-1.2c0-0.1-0.1-0.2-0.1-0.3c0-0.3,0.4-1,0.5-1.4
				c0.3-0.4,1.2-3,1.6-3c0.2,0,0.4,0.2,0.5,0.4C609.6,259.3,609.7,259.4,609.7,259.5z M609.6,259.2c0,0.1,0.1,0.2,0.1,0.4
				c0,0,0,0,0-0.1C609.7,259.5,609.6,259.3,609.6,259.2L609.6,259.2z"/>
			<path class="st1" d="M615,265.4c0.1-0.9,0.6-1.6,0.6-2.4c0-0.1,0-0.2,0-0.3c0.5-0.9,0.9-2.8,0.9-3.3c0-0.1,1.3-3.9,1.3-3.7
				c0.6-0.9,0.5-2.6,1-3c0.5-0.5,0.8-1.2,0.8-1.9c0-0.6,0.5-1.1,0.5-1.4c0-0.7,0.8-2,0.9-2.2c0.3-0.5,0.2-0.9,0.3-1.3
				c1.8-1.8,0.6-3,3.3-3c1.8,0,2.6,1.4,2.6,2.9c0,0.3-0.1,3.1-0.7,4c0,1.1-0.7,2-0.7,3.2c0,0.1-1,2.3-1.6,2.9c0,0.3,0,0.7-0.1,1.1
				c-0.1,0.3-0.5,0.4-0.5,0.7c0,1.1-0.7,0.4-0.7,1.7c0,1.4-1.3,1.9-1.4,2.8c-0.2,1.6-1.6,2-1.9,4.2c-0.1,0.9-1.7,1.7-1.7,2.7
				c0,0.6-1.1,1.3-1.1,1.9c0,0,0,0.3,0.2,0.3c3-1,6.8-4.4,9.2-4.4c0.3,0,0.7,0.3,0.7,0.5c0,0.3-0.3,0.5-0.5,0.6
				c-4.2,1.9-7.2,4.1-10.8,6.6c-0.5,0.4-0.7,1.7-0.9,2.5c1.8,3.9,2,8.3,2,13c0,0.3-0.2,0.7-0.2,0.9c0,0.3,0.2,0.8,0.2,1.2
				c0,0.5-0.5,2.3-0.5,2.8c0,0.3,0.1,0.6,0.1,0.9c0,1.8-0.7,3.6-0.7,5.3c0,0.3,0,0.6,0,0.9c0,0.6-0.4,1.2-0.4,1.5
				c0,0.2,0.1,0.5,0.1,0.7c0,0.6-0.3,1-0.7,1c-0.6,0-1.1-0.1-1.7-0.2c-0.7,0-1.3-3.1-1.3-4.4c0-0.2,0.1-0.4,0.1-0.6s0-0.3,0-0.5
				s0-0.4,0.2-0.5c0-0.4,0-0.8,0-1.2c0-0.2-0.4-0.2-0.4-0.4c0-0.1,0.1-0.2,0.1-0.3c0-0.2-0.1-0.3-0.1-0.5c0-0.6,0.2-1.3,0.2-1.8
				c0-0.4-0.2-0.8-0.2-1.2c0-0.6,0.5-0.9,0.5-1.6c0-0.3-0.1-0.6-0.4-0.8c0.1,0,0.1-0.1,0.1-0.2s-0.2-0.3-0.2-0.4
				c0-0.2,0.5-0.2,0.5-0.6c0-0.3-0.1-0.6-0.1-0.9c0-0.7,0.3-1.4,0.3-2.1c0-0.4-0.2-0.7-0.2-1.1c0-0.2,0-0.3,0.1-0.5
				c0.3-0.7,0.1-1.4,0.2-2.1c0-0.1-0.1-0.3-0.1-0.4l0,0c0.4-0.7,0.2-1.5,0.4-2.3c0-0.4-0.2-0.5-0.5-0.7c0-0.5,0.1-1.1,0.1-1.6
				c0-0.2-0.1-0.5-0.1-0.7c-0.1-0.9-2.2-1.1-2.2-2.1c0-0.8,1.1-1.1,1.5-1.2c1.9-0.5,2.8-3.3,2.8-5.4c0-0.2,0-0.4,0-0.5
				c0-0.6,0.5-0.9,0.5-1.5C614.8,266.3,615,265.8,615,265.4z M611.7,291.2c0,0.2,0,0.2-0.1,0.2l0,0c0-0.1,0-0.3,0-0.5
				C611.7,290.9,611.7,291.1,611.7,291.2z M612.3,282.5L612.3,282.5L612.3,282.5L612.3,282.5L612.3,282.5z M613.1,283.1
				C613.1,283.1,613,283.1,613.1,283.1c-0.1,0.2,0,0.2,0,0.3C613.1,283.3,613.1,283.3,613.1,283.1
				C613.2,283.2,613.2,283.1,613.1,283.1z M614.9,294.5c0.3-0.8,0.3-2.1,0.3-3c0-1.1,0.2-2.1,0.2-3c0-0.5-0.1-0.9-0.1-1.3
				c0-1.1,0-5.3-0.9-5.3c-0.3,0-0.4,0.2-0.4,0.5s0,0.7,0,1c0,0.9-0.3,2.1-0.3,2.9c0,0.3,0,0.7,0,1c0,0.7-0.2,1.4-0.2,2.1
				c0,0.4,0.2,0.9,0.2,1.3c0,0.5-0.2,1.3-0.2,1.9c0,1.2,0.2,2.4,0.2,3.7c0,0.2-0.1,0.5-0.1,0.8c0,0.2,0,0.4,0.1,0.5
				c0,0.1-0.1,0.2-0.1,0.4c0,0.3,0.2,0.5,0.4,0.8C614.8,297.3,614.5,296.1,614.9,294.5z M614.6,266.5L614.6,266.5
				c0.1,0,0.2,0,0.2,0.1v0.1l0,0C614.7,266.6,614.6,266.6,614.6,266.5z M621.9,259.5C622,259.5,622,259.5,621.9,259.5
				c0-0.2,0-0.2-0.1-0.3c0.1-0.3,0.2-0.6,0.2-0.9c0-0.2,0-0.3,0-0.5c0-0.7,0.5-1.2,0.7-2c0.1-0.8,1.2-2.4,1.2-2.8c0-0.1,0-0.2,0-0.3
				c0-0.8,0.7-1.8,0.7-2.8c0-0.6,0.4-1.2,0.4-1.6c0-0.1-0.1-0.2-0.1-0.3c0-0.3,0.2-0.6,0.2-0.9c0-0.4-0.4-0.7-0.5-1
				c-0.8,0.1-1.4,1.7-1.8,2.6c-1.4,3.6-2.5,6.6-3.8,10c-0.2,0.5-0.3,1.4-0.4,1.6c-0.8,1-0.8,3.9-1.6,5.7c0,0.1,0.1,0.3,0.1,0.4
				c0.4-0.1,0.7-0.2,0.8-0.6c0.1-0.5,0.7-0.6,0.7-1.2c0-1.1,0.2-1,0.9-1.2c0-0.1-0.1-0.2-0.1-0.3c0-0.3,0.4-1,0.5-1.4
				c0.3-0.4,1.2-3,1.6-3c0.2,0,0.4,0.2,0.5,0.4C621.9,259.3,621.9,259.4,621.9,259.5z M621.8,259.2c0,0.1,0.1,0.2,0.1,0.4
				c0,0,0,0,0-0.1C622,259.5,621.8,259.3,621.8,259.2L621.8,259.2z"/>
			<path class="st1" d="M627.3,263.4c0.4-1.2,1.7-1.5,2-2.4c0.6-0.6,1.1-1.4,2-1.8c0.5-0.2,0.8-0.8,1.4-0.8c2,0,5.4,1.6,5.4,3.8
				c0,0.1,0,0.3,0,0.4c0,0.3,0,0.5,0,0.8c0,0.5-0.2,0.9-0.5,1.2c-0.4,0.2-0.5,0.9-0.9,1.2c-0.3,0.3-0.5,0.5-0.7,0.9
				c-0.4,0.9-2.7,3-4.9,3c-0.5,0-1.1-0.2-1.6-0.2c-0.7,0-0.8,1.2-0.8,1.8c0,1.8,0.1,5.3,1.5,5.3c0.6,0,1.3-0.5,1.7-0.9
				c2.1-1.8,4.2-3.5,6.2-5.4c0.4-0.4,2.1-2.4,3.3-2.4c0.2,0,0.6,0.1,0.6,0.5c0,0.5-1.2,1-1.6,1.3c0,0-2.1,1.8-2.1,2.3
				c0,0.3-0.2,1-0.6,1c-1.1,0.6-1.7,2.4-2.4,2.7c-0.6,0.2-3.2,3.6-3.9,3.6c-0.1,0-0.3,0-0.4-0.1c-0.3,0.2-0.5,0.3-0.7,0.5
				c-1.5-0.2-2.6-0.1-3.4-1.4c-0.1-0.2-0.2-0.4-0.4-0.5c-0.7-0.4-1.1-1.8-1.1-1.9c0-0.2,0.1-0.4,0.1-0.6c0-0.4-0.4-0.7-0.4-1
				c0-0.1,0.1-0.3,0.1-0.5s-0.2-0.5-0.2-0.8c0-0.2,0.2-0.5,0.2-0.7c0-0.3-0.3-0.6-0.3-0.9c0-0.8,0-2.7,0.5-3.4c0.5-0.7,0.4-2,1-2.9
				c-0.1,0.1-0.2,0.3-0.2,0.5c0,0.1,0,0.2,0.1,0.2c0,0,0.1,0,0.1-0.2s0-0.3-0.1-0.5C626.7,264.6,627.1,264.1,627.3,263.4z
				 M634.9,263.2c0-0.7-0.2-1.8-0.9-1.8c-2.6,0-4.7,4.4-4.7,5.5c0,0.3,0.2,0.3,0.8,0.4C631.5,266.9,634.9,265.8,634.9,263.2z"/>
			<path class="st1" d="M641.2,270.2c0.5-0.1,0.7-1.6,1-1.9c0-0.2,0-0.4,0-0.6c0-0.7,0.4-1.5,0.4-1.9c0.1-1.5,1.1-3.1,1.7-4.6
				c0.2-0.5,1.2-2.5,1.5-2.5c0.1,0,0.2,0,0.3,0c0.4,0,0.8-0.2,1.3-0.2c1.2,0,1.3,1.5,1.6,2.4c0,0.2-0.1,0.5-0.1,0.8
				c0.7-0.9,1.8-2,1.9-2.5c0.2-0.7,1.9-2.3,3.2-2.3c2.1,0,2.7,2.2,2.7,3.7c0,1.6-0.3,2.2-1.4,3c-0.7,0.5-0.5,1.8-1.1,1.8
				c-1.6,0-1.2-5-1.8-5c0,0,0,0-0.1,0c-1.6,1-3.6,4.2-4.3,6.1c-0.3,0.7-0.5,1.4-0.9,2c-0.7,1-0.4,1.9-1.5,4.8
				c-0.5,1.4-0.5,2.9-1.2,4.2c0-0.1-0.7,3.5-2.2,3.5c-1,0-1.3-1.4-1.3-2.8c0-0.4,0.1-0.7,0.1-1.1c0-0.6-0.2-1.2-0.2-1.8
				c0-0.8,0.2-2.2,0.7-2.8c0,0,0-0.1,0-0.2c0-0.2-0.2-0.5-0.2-0.7c0-0.4,0.2-0.9,0.2-1.2L641.2,270.2z M646.5,266.9l-0.1,0.1h0.1
				V266.9z"/>
			<path class="st1" d="M661.1,263.4c0.4-1.2,1.7-1.5,2-2.4c0.6-0.6,1.1-1.4,2-1.8c0.5-0.2,0.8-0.8,1.4-0.8c2,0,5.4,1.6,5.4,3.8
				c0,0.1,0,0.3,0,0.4c0,0.3,0,0.5,0,0.8c0,0.5-0.2,0.9-0.5,1.2c-0.4,0.2-0.5,0.9-0.9,1.2c-0.3,0.3-0.5,0.5-0.7,0.9
				c-0.4,0.9-2.7,3-4.9,3c-0.5,0-1.1-0.2-1.6-0.2c-0.7,0-0.8,1.2-0.8,1.8c0,1.8,0.1,5.3,1.5,5.3c0.6,0,1.3-0.5,1.7-0.9
				c2.1-1.8,4.2-3.5,6.2-5.4c0.4-0.4,2.1-2.4,3.3-2.4c0.2,0,0.6,0.1,0.6,0.5c0,0.5-1.2,1-1.6,1.3c0,0-2.1,1.8-2.1,2.3
				c0,0.3-0.2,1-0.6,1c-1.1,0.6-1.7,2.4-2.4,2.7c-0.6,0.2-3.2,3.6-3.9,3.6c-0.1,0-0.3,0-0.4-0.1c-0.3,0.2-0.5,0.3-0.7,0.5
				c-1.5-0.2-2.6-0.1-3.4-1.4c-0.1-0.2-0.2-0.4-0.4-0.5c-0.7-0.4-1.1-1.8-1.1-1.9c0-0.2,0.1-0.4,0.1-0.6c0-0.4-0.4-0.7-0.4-1
				c0-0.1,0.1-0.3,0.1-0.5s-0.2-0.5-0.2-0.8c0-0.2,0.2-0.5,0.2-0.7c0-0.3-0.3-0.6-0.3-0.9c0-0.8,0-2.7,0.5-3.4c0.5-0.7,0.4-2,1-2.9
				c-0.1,0.1-0.2,0.3-0.2,0.5c0,0.1,0,0.2,0.1,0.2c0,0,0.1,0,0.1-0.2s0-0.3-0.1-0.5C660.5,264.6,660.9,264.1,661.1,263.4z
				 M668.6,263.2c0-0.7-0.2-1.8-0.9-1.8c-2.6,0-4.7,4.4-4.7,5.5c0,0.3,0.2,0.3,0.8,0.4C665.2,266.9,668.6,265.8,668.6,263.2z"/>
			<path class="st1" d="M688.3,283.3c-0.2,0-0.4,0.1-0.7,0.3c-2.1,0-2.8-3-2.9-5.2c0-0.4,0-0.8,0-1.2c0-0.6-0.2-1.1-0.2-1.6
				c0-0.7,0.7-1.8,0.7-2s0-0.3,0-0.5c0-0.1,0.1-0.3,0.1-0.4c0-0.2-0.4-0.4-0.4-0.7c0-0.5,0.2-1,0.3-1.5c0-0.2-0.2-0.4-0.2-0.6
				c0-0.1,0.1-0.2,0.2-0.2c0.5-0.3,0.5-1.3,0.5-1.6c0-0.7-0.2-1.3-0.2-2c0-0.4,0.2-0.8,0.2-1.2c0-0.1,0-0.3-0.1-0.3
				c-0.4,0-2.6,2.2-2.7,3.2c-0.1,0.7-1.3,2.6-1.8,3.5c-1.2,1.9-2.2,3.7-4.4,3.7c-1.5,0-1.7-2.3-1.7-4.1c0-1.2,0.1-1.9,0.1-2.9
				c0-0.3-0.2-0.7-0.2-1c0-0.2,0.2-0.5,0.2-0.7s0-0.4,0-0.7c0-1.4,0.5-3,0.5-4.4c0-0.6,1.2-1.1,1.9-1.1c1.2,0,1.2,1,1.2,2
				c0,1.8-0.1,3.6-0.2,5.4c-0.1,0.8-0.7,1.7-0.7,2.5c0,0.1,0.1,0.2,0.2,0.3c1,0,2.3-3.2,3.8-4.3c0.4-0.5,0.8-1.3,1.3-1.8
				c0.6-0.8,2.1-1.4,2.3-1.8c0.4-0.7,1.3-0.8,1.9-0.8c1.8,0,1.6,1.4,1.6,5.5c0,0.8-0.8,1.1-0.8,1.8c0,0.1,0.1,0.3,0.1,0.5
				s-0.1,0.4-0.1,0.6c0,0.3,0.4,0.6,0.4,0.8c0,0.2-0.4,0.4-0.6,0.5c0,0.2,0.2,0.6,0.2,0.7l0,0c-0.3,0.6-0.4,1.8-0.4,3.1
				c0,1.2-0.1,3.6,0.3,3.6c0.5,0,2-3.8,2.6-5.2c0.1-0.4,0.6-0.3,0.6-0.6c0-0.6,0.1-0.9,0.5-1.4c0.7-0.8,1-2.8,2.5-2.8
				c0.3,0,0.5,0.2,0.5,0.5c0,0.7-1.3,2.8-1.8,3.1c-0.2,0.4,0,1-0.3,1.3c-0.6,0.7-0.5,1.5-1,2l-0.5,2.2c0,0.2,0.1,0.5,0.1,0.8
				c0,0.8-0.8,1.3-0.8,1.8s0,0.7-0.4,0.9c-0.1,0.1-0.6,1.4-1.2,2C688.6,283.4,688.4,283.3,688.3,283.3z M685.9,270.9L685.9,270.9
				c-0.1,0.2-0.1,0.2,0,0.3C685.9,271.1,685.9,271.1,685.9,270.9C686,271,686,270.9,685.9,270.9z M687.4,277.4L687.4,277.4v-0.1
				V277.4z"/>
			<path class="st1" d="M701.2,267.4c-0.1,0-0.2,0-0.4,0c-0.4,0-0.6-1.5-0.6-2h0.1c0,0.1,0,0,0,0.1c0,0,0,0,0-0.1
				c-0.4,0.4-0.6,0.6-0.6,0.9s0.5,0.9,0.5,1.2c0,0.2-0.6,0.7-0.6,1.4c0,0.3,0,0.6,0,0.9c0,0.4,0,0.7-0.4,0.9l0,0
				c0-0.6-0.7-0.4-0.7-0.7c0-0.2,0.5-0.3,0.5-0.7c0-0.2-0.4-0.5-0.4-0.7c0-0.1,0-0.2,0-0.3c0-0.4-0.1-0.8-0.1-1.2
				c0-0.3,0.1-0.6,0.1-0.9c0-0.2,0-0.5,0-0.7c0-0.8,0.1-1.6,0.5-2.3c0-0.1,0.1-0.2,0.1-0.3c0-0.2-0.2-0.5-0.2-0.7s0-0.3,0-0.5
				s-0.2-0.5-0.5-0.5s-0.3,0.2-0.4,0.2c-1.2,0-1.4,1.2-3.4,1.2c-0.4,0-2.6-0.4-2.6-1.6c0-0.5,1.1-0.5,1.6-0.5
				c0.8-0.2,1.7-0.9,2.1-0.9c0.1,0,1.3-1.2,2.8-1.4c1-0.2,1.1-3,1.1-4.5c0-0.4,0-0.7-0.1-1.1c0.5-0.9,0.8-1.6,1.8-1.6
				c1.3,0,1.6,0.9,1.6,2.7c0,0.6-0.1,1.2-0.3,1.3h0.1c0,0,0,0,0,0.1V255c0.4,0.2,0.3,0.8,0.7,0.9c0.6-0.2,2.1-1,3.3-1
				c0.5,0,1.3-1,1.8-1c0.2,0,0.4,0.5,0.7,0.5c0.4,0,0.3-0.7,0.8-0.7c1.6,0,1,1.6,1.4,1.6c0,0,0.1,0,0.2-0.1c0.1,0.2,0.1,0.3,0.1,0.4
				c0,0.3-0.7,1-0.9,1c-0.1,0-0.5-0.2-0.7-0.2s-0.4,0.3-0.7,0.3c-0.1,0-0.3,0-0.4,0c-0.2,0-0.3,0-0.4,0.1c-1.3,0.8-2.2,0.8-3.4,1.1
				c0,0-2.6,1.4-2.9,2c0,0.1,0,0.2,0,0.3c0,0.3-0.2,0.6-0.2,0.9c0,0,0,0.1,0,0.2c-0.1,1-0.2,2-0.3,3c0,0.6-0.5,1.1-0.5,1.7
				c0,1-0.1,1.3-0.2,2.1C701.4,267.6,701.4,267.4,701.2,267.4z M700.9,270.1c0.2,0,0.4-0.1,0.5-0.1c-0.2,0.5-0.4,0.9-0.4,1.4
				c0,0.2,0.1,0.5,0.1,0.7c0,1.9-0.4,3.6-0.4,5.4c0,0.4,0.4,0.7,0.4,1.1c0,0.3-0.5,0.4-0.5,0.9c0,0.1,0,0.5,0.2,0.6
				c0.8,0.5-0.2,2.3,1,2.3c0.6,0,1.9-2.3,2.5-3.5c0.9-1.7,2-3.2,3.1-4.8c0.1,0.3,0.2,0.5,0.2,0.7c0,0.3-0.2,0.5-0.5,0.9
				c-0.1,0.5-0.1,1-0.1,1.5c0,0.9,0.2,1.9,0.2,2.7c0,1.4-0.9,1.3-1,2c0,0.3,0,1.1-0.2,1.1c-0.1,0-0.2-0.1-0.3-0.1
				c-0.6,0-0.7,0-0.8,0.6c0,0.5-0.5,0.4-0.6,0.8c0,0.2-1.2,1.3-1.3,1.3s-0.2,0-0.2,0c-0.1,0-0.4,0.1-0.4,0.2
				c-0.2,0.6-1.3,0.8-1.5,0.8c-1,0-2-1-2-1.5c0-0.1,0-0.2,0-0.3c0-0.9-0.9-1.8-0.9-2.5c0-0.1,0-0.3,0-0.4c0-0.2-0.5-1.3-0.5-1.8
				c0-0.2,0.9-1.5,0.9-2.3c0-0.2,0-0.3,0-0.5c0-0.6,0.5-1,0.5-1.5c-0.1-0.1-0.1-0.3-0.3-0.3c-0.3,0-0.5,1.3-0.8,1.3
				c-0.1,0-0.3-0.2-0.3-0.2c0.3-0.5,0.3-1.9,0.7-1.9c0.2,0,0.3,0.3,0.5,0.3s0.5-0.3,0.5-0.7c0-0.2-0.1-0.2-0.4-0.4l0,0
				c0.2-0.2,0.3-0.6,0.3-0.9c0-0.2,0-0.3,0-0.5s0-0.4,0.2-0.5c0.1,0,0.2,0.4,0.2,1c0,0.3,0,0.7,0,1.1c0,1,0.1,2.1,0.5,2.1
				c0.1,0,0.2-0.4,0.2-0.5s0-0.2,0-0.3c0-0.4,0.3-0.7,0.3-1.1s-0.4-0.8-0.4-1.1c0-0.2,0.5-0.8,0.5-1.3c0-0.2-0.1-0.3-0.1-0.5
				c0-0.4,0.1-0.7,0.1-1.1l0,0C700.7,270.1,700.8,270.1,700.9,270.1z M698.6,272.5c0,0,0,0.2-0.1,0.2c-0.2,0-0.1-0.2-0.1-0.7
				C698.5,272.2,698.6,272.3,698.6,272.5z M698.9,271.4c0,0-0.1-0.1-0.2-0.2c0.1-0.1,0.4-0.1,0.4-0.1
				C699.1,271.3,699,271.4,698.9,271.4z M699.1,273.6L699.1,273.6L699.1,273.6L699.1,273.6L699.1,273.6z M699.1,271.2L699.1,271.2
				c0.1-0.2,0.2-0.3,0.3-0.5C699.4,270.9,699.3,271,699.1,271.2z M699.6,278.3c0,0,0,0.1,0.1,0.1c0.5,0,0.6-0.7,0.6-1
				c0-0.2-0.1-0.8-0.2-0.8c-0.4,0.2-0.3,0.6-0.4,1C699.7,277.8,699.7,278.1,699.6,278.3z M701.6,268.6c0,0.7-0.9,0.9-0.9,1.5l0,0
				c-0.2,0.1-0.3,0.3-0.4,0.3s-0.2-0.1-0.2-0.2c0-0.5,0-1,0.2-1.4c0.1,0.2,0.2,0.2,0.4,0.3c0.2-0.9,0.4-0.9,0.9-1l0,0
				C701.5,268.2,701.6,268.4,701.6,268.6z M700.5,264.3C700.5,264.2,700.5,264.2,700.5,264.3c-0.1,0-0.1,0-0.1,0.1c0,0,0,0,0.1,0
				C700.5,264.3,700.5,264.3,700.5,264.3z M700.7,262.7c0,0.1,0,0.1,0.1,0.1c0,0,0,0,0.1-0.1C700.8,262.7,700.8,262.6,700.7,262.7
				C700.7,262.6,700.7,262.6,700.7,262.7z M704.6,282.7c0,0-0.1,0-0.1,0.1s0,0.2,0.1,0.2s0.1-0.1,0.1-0.2
				C704.7,282.8,704.7,282.7,704.6,282.7z M705.8,281.6c0-0.2-0.2-0.3-0.4-0.3s-0.2,0.1-0.3,0.3c0,0.3,0.2,0.2,0.4,0.3
				C705.8,281.9,705.8,282,705.8,281.6z M705.5,280c-0.1,0-0.2,0.1-0.2,0.3c0,0.1,0.1,0.2,0.2,0.2c0.1,0,0.2,0,0.3-0.2
				C705.8,280.2,705.6,280,705.5,280z M705.8,278.7c0-0.1,0.1-0.1,0.1-0.2l-0.1-0.1C705.8,278.5,705.7,278.6,705.8,278.7
				C705.7,278.7,705.8,278.7,705.8,278.7z M706.7,277.6c-0.1,0-0.1,0.1-0.1,0.1c0,0.1,0,0.2,0.1,0.2c0,0,0,0,0.1,0
				C706.8,277.7,706.7,277.6,706.7,277.6z M708.1,274.7v-0.1c0,0,0.1,0,0.1-0.1C708.2,274.5,708.2,274.6,708.1,274.7
				C708.2,274.7,708.1,274.7,708.1,274.7z M708.7,273.1c0,0.1-0.1,0.2-0.3,0.2s-0.3-0.1-0.3-0.2s0.1-0.2,0.3-0.2
				C708.6,273,708.7,273,708.7,273.1z M710.7,269c0.1,0,0.2,0,0.2,0.1c0,0.7-0.4,1.8-0.9,1.8c-0.2,0-0.5-0.2-0.7-0.4
				C709.9,270.2,709.9,269,710.7,269z M711.4,268.5c0-0.1-0.1-0.2-0.1-0.2c0-0.1,0.1-0.1,0.2-0.1c0.1,0,0.2,0.1,0.2,0.1v0.1
				C711.5,268.4,711.5,268.5,711.4,268.5z M712.5,266.9c0-0.2,0.2-0.5,0.4-0.5s0.3,0.2,0.3,0.3c0,0.2-0.4,0.7-0.5,0.7
				C712.5,267.1,712.5,267,712.5,266.9z M714.1,265c-0.1,0-0.1,0-0.1-0.1s0.2-0.3,0.4-0.4v-0.1C714.3,264.6,714.3,265,714.1,265z
				 M714.7,264.3c0.1,0,0.2,0,0.3,0.2c0,0.1-0.1,0.2-0.2,0.2c-0.1,0-0.3-0.1-0.4-0.1C714.5,264.5,714.6,264.3,714.7,264.3z
				 M715.2,263.6c0-0.1,0.1-0.2,0.2-0.2s0.2,0.1,0.2,0.2s-0.1,0.2-0.2,0.2c0,0,0,0-0.1,0C715.3,263.8,715.2,263.7,715.2,263.6z
				 M717.6,262.1c0-0.6,0.6-1,1.2-1c0,0,0.2,0.1,0.2,0.2c0,0.9-0.2,0.9-1,1.2C717.8,262.4,717.6,262.3,717.6,262.1z"/>
			<path class="st1" d="M720.4,270.2c0,1-0.5,1.1-0.5,1.8c0,0.2,0,0.5,0.2,0.5c0,0,0.1-0.1,0.2-0.1c0.1,0,0.2,1,0.2,1.6
				c0,1.4-0.6,1.6-0.6,2.8c0,0.5,0,0.8,0,1.4c0,0.8,0.2,1.6,1.1,1.6h0.1c0,0.6,0,1.5,0.2,1.5c0.6,0,1.9-5.8,2.9-7.8
				c0.1,0,0.2,0,0.3,0c0.4,0,0.1-0.9,0.4-0.9c0.2,0,0.1,1.6,0.4,1.6c0.3-0.3,0.3-1.4,0.3-2.1c0-0.3-0.1-0.7-0.1-1
				c0-1.1,0.3-2.6,1.3-3.1c0.3-0.2,0.4-1.3,0.5-1.8c0.1-0.7,0.6-1.2,0.8-1.9c0.1-0.4,1.4-1.5,2-1.5c0.2,0,0.6,0.1,0.6,0.3
				c0,0.9-0.9,1.9-1.6,2.6c-0.9,0.7-1.5,3.4-1.9,3.4c-0.2,0-0.2-0.3-0.4-0.3c-0.4,0-0.3,3.7-0.4,5.3c-0.2,0.1-0.3,0.2-0.5,0.3
				c-0.1,1.5,0.1,3.1-0.2,4.6c-0.2,0-0.4,0-0.5,0c0,0.1-0.1,0.2-0.1,0.2c0,0.2,0.1,0.4,0.1,0.7c0,0.2,0,0.4,0,0.6c0,0.1,0,0.3,0,0.5
				c0,1.4-0.7,2.5-1,3.8c-0.3,1.1-1.3,1.1-1.4,1.6c-0.1,0.4-0.9,1-0.9,1c-0.2,0-0.4-0.3-0.6-0.3c-0.3,0-0.6,0.2-0.9,0.2
				c-1.7-0.2-1.7-3.6-2.6-4.4c-0.1-0.1-0.2-0.4-0.2-0.8c0-1.9-0.6-1.4-0.6-3.8c0-0.7,0-1.5,0-2c0-0.7-0.2-1.3-0.2-1.9
				c0-0.9,0.2-1.9,0.2-2.8c0-0.4,0-0.8,0-1.2c0-0.8,0.7-0.2,0.7-0.7c0-0.2,0-0.5,0-0.7c0-0.8,0.1-1.6,0.1-2.5c0-1-0.4-1.8-0.4-2.7
				c0-1.5,0.3-2.7,0.5-4.1c0-0.1,0.1-0.2,0.1-0.4c0-0.4-0.1-0.7-0.1-1.2c0-0.4,0.2-0.7,0.2-1.1c0-0.3-0.1-0.6-0.1-0.9
				c0-0.9,0.3-2.1,0.3-2.9c0-0.3,0-0.7,0-0.9c0-0.7,0-1.3,0-1.9c0-0.6-0.2-1-0.2-1.4c0-0.9,1.1-0.9,1.8-0.9c1.3,0,1.4,0.3,1.4,1.4
				c0,2.1-0.5,5.1-0.5,6.8c0,0.2,0.2,0.4,0.2,0.7v0.1c-0.3,0.5-0.2,1.1-0.2,1.7c0,0.2,0.2,0.4,0.2,0.7c0,0.2-0.1,0.3-0.1,0.5
				s0.1,0.4,0.1,0.6c0,0.3-0.2,0.8-0.2,1.2c0,0.3,0.2,0.7,0.2,1c0,0.7-0.3,1.5-0.3,2.1c0,0.2,0.2,0.5,0.2,0.7c0,0.3-0.4,0.7-0.4,1
				s0.4,0.5,0.4,0.9c-0.1,1-0.2,1.4-0.4,2.1c0,0,0,0,0-0.1C720.4,269.2,720.4,269.6,720.4,270.2z M718,273c0-0.2-0.3-0.5-0.5-0.5
				s-0.3,0.2-0.3,0.5c0,0.1,0,0.3,0.1,0.5C717.5,273.4,718,273.4,718,273z M719.4,275.2c0,0.1-0.1,0.2-0.1,0.2v0.1
				c0,0,0.1-0.1,0.1-0.2C719.5,275.3,719.5,275.3,719.4,275.2z M719.4,271.4L719.4,271.4v-0.1V271.4z M720.4,281.7
				c0,0.1,0,0.2,0.1,0.3c0-0.2,0.1-0.2,0.2-0.4l-0.1-0.2C720.4,281.4,720.4,281.6,720.4,281.7z M723.5,276c0,0.4,0,0.8,0,1.2
				c0,0,0,0,0.1,0.1c0.1,0,0.1-0.3,0.1-0.7c0-0.2,0-0.5,0-0.6H723.5z M725.3,275.3c0-0.1,0-0.1-0.1-0.1s-0.2,0.1-0.2,0.2
				s0.1,0.1,0.2,0.1C725.2,275.4,725.3,275.4,725.3,275.3z M725.8,272.8c0,0.1,0,0.2,0.1,0.2v-0.1c0-0.2,0-0.3,0-0.7
				C725.8,272.5,725.8,272.6,725.8,272.8z M727.3,266.6L727.3,266.6c-0.1,0.1,0,0.2,0,0.2h0.1C727.4,266.7,727.4,266.6,727.3,266.6z
				"/>
			<path class="st1" d="M737.7,292.9c0,1.9-2.1,4.8-4.4,4.8c-1.8,0-2-0.9-2.9-1.5c-1-0.6-1-1.8-1-3.1c0-1.2,0-3.1,1.2-5.3
				c0.3-0.4,0.5-1.8,0.9-2.6c0.3-0.7,0.9-2,1.9-3.7c0.2-0.3,0.5-0.5,0.7-0.9c0.5-0.8,1-2.4,1.7-2.6c0.7-0.4,0.8-1.2,1.4-1.7
				c1.1-0.9,1.6-2.7,1.8-4.2c0.1-0.7,0.8-1.3,0.8-1.9c0-0.1,0-0.2-0.1-0.2s-0.4,0.3-0.5,0.3s-0.2-0.1-0.2-0.2c0-1.8,0.8-2,0.8-3
				c0-0.8,0-2.8-0.7-2.8s-0.7,0.9-1.1,0.9c0,0-1.1,0.9-1.3,1.6c0-0.1-1.1,1.5-1.7,1.8c-0.1,0.1-0.9,1.4-1.1,2.2
				c-0.1,0.7-1,1.3-1.6,1.9c-3.4-0.3-4.2-3.4-4.2-6.1c0-0.4,0-0.9,0.1-1.3c0-0.1,0.4-7.4,2.2-7.4c1.5,0,2.4,1.6,2.4,2.4
				c0,1.9-0.7,4-0.7,5.9c0,0.3,0,0.5,0.3,0.5c0.5,0,2.2-1.6,2.6-2.2c0.5-0.7,1.2-1.2,2-1.5c0.6-0.3,0.3-0.9,0.7-1
				c0.5-0.2,0.4-0.9,0.9-1.3c0.4-0.4,1.6-1.8,2.8-1.8c0.9,0,2.6,0.9,2.6,1.7c0,0.7-0.1,1.4-0.1,2.1c-0.4,1.6-0.3,4-1,5.3
				c-0.3,0.6-0.4,1.5-0.4,2.3c0,0.2,0.1,0.4,0.4,0.4c0.4,0,1.5-0.8,2.2-1.2c1-0.9,1.1-1,2.1-1.4c0.4-0.2,0.9-0.2,1.1-0.7
				c0.1-0.1,2.2-1.1,2.8-1.1c0.4,0,2.1,0.3,2.1,1.3c0,0.4-0.2,0.8-0.6,0.8c-1.2,0-1.4,0.4-2.4,0.9c-1.6,0.9-3.2,1.8-4.6,2.9
				c-1.2,0.7-1.8,1.4-2.6,2c-1.2,0.9-1.8,1.7-2.8,4.4c-0.1,0.3-0.6,0.3-0.6,0.7c0,0.1,0,0.4,0.2,0.5c0.1,0,0.3-0.1,0.4-0.2
				c0.1,0.4,0.2,0.8,0.2,1.2c0,0.3,0,0.7-0.1,1c-0.1,0.8-1.4,0.5-1.4,1.5c0,0.2,0.1,0.3,0.1,0.5c0.4-0.3,0-1,0.8-1
				c0.3,0,0.4,0.2,0.4,0.5c0,0.4-0.2,0.7-0.2,1.1c0,0.1-0.5,0.3-0.5,0.8c0,0.1,0,0.2,0,0.4c0,0.1,0,0.2,0,0.3c0,0.3,0.2,0.7,0.2,1
				c0,0-0.3,2.2-0.7,2.2c-0.1,0-0.1,0-0.2,0c-0.1,0-0.2,0-0.2,0.1v0.1c0.1-0.2,0.4-0.2,0.6-0.2C738.1,290.1,738.5,291.7,737.7,292.9
				z M733,294.5c0.5,0,0.9-0.6,1.4-0.8c1.1-0.5,1.6-2,2.4-3c-0.1-0.2-0.3-0.3-0.3-0.5c0-0.8,0.7-0.9,0.7-1.7c0-0.2,0-0.3,0-0.5
				c0-0.7,0.7-1.5,0.7-2.5c0-0.2-0.1-0.4-0.1-0.6c0-1.1,0.6-3,0.6-4.6c0-0.1,0-0.6-0.4-0.6c-0.3,0-1.9,2.5-2.3,3.4
				c0,0.1-0.1,0.2-0.2,0.4c-0.9,1.1-2.1,3-2.2,4.3c0,0.1-0.1,0.3-0.2,0.4c-0.5,0.6-0.8,3.6-1,5.1C732,294,732.2,294.5,733,294.5z
				 M736,292.8l-0.1,0.1c0,0.1,0,0.1,0.1,0.1s0.1-0.1,0.1-0.1S736.1,292.8,736,292.8z M737.4,289.9C737.4,290,737.4,290,737.4,289.9
				c0.2,0.1,0.2,0,0.2-0.1C737.4,289.8,737.4,289.9,737.4,289.9z M737.4,288.6c0,0,0.1,0,0.1-0.1c0,0,0-0.1-0.1-0.1s-0.1,0-0.1,0
				L737.4,288.6z M738.3,287.8c0,0,0,0.1,0.1,0.1c0.4,0,0.4-0.6,0.6-0.8V287h-0.1c0,0,0,0,0,0.1
				C738.3,287.2,738.3,287.3,738.3,287.8z M738.4,289.3L738.4,289.3L738.4,289.3L738.4,289.3z M738.5,285.7l0.2,0.2
				c0.1,0,0.4-0.2,0.4-0.4c-0.1,0-0.2-0.1-0.3-0.2C738.7,285.4,738.5,285.5,738.5,285.7z M738.8,281.1c-0.1,0-0.2,0.1-0.2,0.2
				c0,0,0,0.1,0.1,0.1s0.1-0.1,0.2-0.1C738.9,281.2,738.9,281.1,738.8,281.1z M739.8,278.5L739.8,278.5c-0.1,0.2,0,0.2,0.1,0.2
				C739.9,278.6,739.9,278.5,739.8,278.5z"/>
		</g>
	</g>
</g>
</svg>
